<?xml version="1.0" encoding="UTF-8" standalone="no"?>
<!-- Created with Inkscape (http://www.inkscape.org/) -->

<svg
   xmlns:dc="http://purl.org/dc/elements/1.1/"
   xmlns:cc="http://creativecommons.org/ns#"
   xmlns:rdf="http://www.w3.org/1999/02/22-rdf-syntax-ns#"
   xmlns:svg="http://www.w3.org/2000/svg"
   xmlns="http://www.w3.org/2000/svg"
   xmlns:sodipodi="http://sodipodi.sourceforge.net/DTD/sodipodi-0.dtd"
   xmlns:inkscape="http://www.inkscape.org/namespaces/inkscape"
   width="221.03529mm"
   height="112.43311mm"
   viewBox="0 0 221.03529 112.43311"
   version="1.1"
   id="svg8"
   inkscape:version="0.92.2 (5c3e80d, 2017-08-06)"
   sodipodi:docname="car.svg">
  <defs
     id="defs2" />
  <sodipodi:namedview
     id="base"
     pagecolor="#ffffff"
     bordercolor="#666666"
     borderopacity="1.0"
     inkscape:pageopacity="0.0"
     inkscape:pageshadow="2"
     inkscape:zoom="0.7"
     inkscape:cx="168.17424"
     inkscape:cy="13.706792"
     inkscape:document-units="mm"
     inkscape:current-layer="layer1"
     showgrid="false"
     fit-margin-top="5"
     fit-margin-left="5"
     fit-margin-right="5"
     fit-margin-bottom="5"
     inkscape:window-width="1920"
     inkscape:window-height="1000"
     inkscape:window-x="-11"
     inkscape:window-y="-11"
     inkscape:window-maximized="1" />
  <metadata
     id="metadata5">
    <rdf:RDF>
      <cc:Work
         rdf:about="">
        <dc:format>image/svg+xml</dc:format>
        <dc:type
           rdf:resource="http://purl.org/dc/dcmitype/StillImage" />
        <dc:title />
      </cc:Work>
    </rdf:RDF>
  </metadata>
  <g
     inkscape:label="Layer 1"
     inkscape:groupmode="layer"
     id="layer1"
     transform="translate(6.9439656,-81.874154)">
    <path
       style="fill:#ffffff;stroke-width:0.35277778;fill-opacity:0.39603961"
       d="m 105.34872,189.19343 c -0.58889,-0.17024 0.28955,-0.42905 2.99861,-0.88346 4.44692,-0.74591 5.94062,-1.22149 4.00787,-1.27606 -2.48861,-0.0703 -6.19247,-0.46291 -6.87916,-0.72925 -0.38806,-0.15051 2.46944,-0.24934 6.35,-0.21962 l 7.05555,0.054 1.76281,-1.03606 c 2.56032,-1.50479 4.78917,-3.96548 6.45488,-7.12629 1.81002,-3.43466 1.94415,-2.84387 0.19349,0.85225 -0.91759,1.93728 -1.88606,3.29919 -3.35331,4.71561 l -2.06309,1.99161 2.73594,-0.87887 c 1.50477,-0.48337 4.1647,-1.3182 5.91095,-1.85516 1.74625,-0.53696 9.8425,-3.06609 17.99166,-5.62028 8.14917,-2.55419 15.53104,-4.86312 16.40417,-5.13096 3.76361,-1.15451 12.65696,-3.96788 18.69722,-5.91478 3.58951,-1.15697 7.55826,-2.4277 8.81945,-2.82385 1.26118,-0.39614 2.42014,-0.83563 2.57546,-0.97665 0.15532,-0.14101 -1.61683,-0.34389 -3.93813,-0.45084 -6.49657,-0.29932 -6.08726,-0.79295 0.65749,-0.79295 h 5.94801 l 1.10746,-1.05833 c 1.25083,-1.19534 2.26586,-2.75223 2.64496,-4.05695 0.18941,-0.65184 0.15173,-0.78314 -0.14442,-0.50327 -0.22038,0.20827 -0.47071,0.74228 -0.55629,1.18668 -0.1854,0.96269 -1.14272,1.76135 -2.12093,1.76942 -0.51827,0.004 -0.5809,-0.0732 -0.23594,-0.29189 0.32053,-0.2032 0.0405,-0.36788 -0.88194,-0.51874 -1.43762,-0.23511 -2.40087,-1.2964 -3.41165,-3.75886 -0.63516,-1.54741 -1.13485,-4.63583 -0.63082,-3.89896 0.27623,0.40384 0.39648,0.29306 0.57441,-0.52916 0.12377,-0.57197 0.3694,-1.39713 0.54584,-1.83369 0.24244,-0.59987 0.19912,-0.79375 -0.17737,-0.79375 -0.27399,0 -0.5643,0.43656 -0.64513,0.97014 l -0.14697,0.97014 -0.088,-1.05833 -0.088,-1.05834 -0.3107,0.88195 c -0.19844,0.56327 -0.26379,-0.71141 -0.18087,-3.52778 0.10646,-3.61592 0.29544,-4.886 1.04983,-7.05556 0.506,-1.4552 0.9604,-2.804 1.00979,-2.99733 0.0494,-0.19333 0.3279,-0.56229 0.61895,-0.81991 0.47036,-0.41636 0.47036,-0.443 0,-0.2397 -0.42403,0.18327 -0.41788,0.13589 0.031,-0.23842 0.30807,-0.25693 0.50122,-0.64175 0.42922,-0.85516 -0.072,-0.21342 0.13541,-0.60905 0.4609,-0.87918 0.52919,-0.43919 0.56606,-0.41007 0.34857,0.27521 -0.22748,0.71671 -0.17798,0.74173 0.76404,0.38616 2.84248,-1.07292 5.10595,3.49883 5.62709,11.36556 0.30898,4.66416 0.79666,2.85528 1.05466,-3.91193 0.28029,-7.35187 -0.60136,-11.64217 -2.85572,-13.89654 -1.94748,-1.94747 -4.28105,-0.65198 -6.49662,3.60662 -1.73961,3.34375 -2.85929,7.09319 -4.49986,15.06855 -1.83027,8.89751 -1.71424,8.57715 -3.25236,8.98034 -0.72175,0.18919 -2.28954,0.53016 -3.48397,0.7577 l -2.1717,0.4137 0.67219,1.95373 c 0.3697,1.07456 1.07723,2.48478 1.57229,3.13384 1.16524,1.52771 0.54334,1.535 -0.79622,0.009 -1.0664,-1.21456 -2.83427,-5.38824 -2.44656,-5.77596 0.12154,-0.12154 1.76085,-0.51731 3.64292,-0.87949 1.88207,-0.36218 3.47113,-0.7077 3.53126,-0.76783 0.0601,-0.0601 0.51241,-2.00075 1.00507,-4.31249 2.68259,-12.58753 3.85556,-16.62435 5.85434,-20.14791 3.22366,-5.68282 7.87041,-5.1014 9.84041,1.23126 0.87726,2.81998 1.27468,9.54865 0.7909,13.39055 -0.17713,1.40671 -0.29297,2.55764 -0.25741,2.55764 0.0355,0 0.50469,-0.635 1.04254,-1.41111 0.53784,-0.77611 1.18509,-1.41111 1.43833,-1.41111 0.25323,0 0.62341,-0.67469 0.82261,-1.4993 l 0.36219,-1.49931 -0.19601,1.76389 c -0.22217,1.99937 -0.94895,3.34938 -2.72941,5.06991 -0.97794,0.94502 -1.27886,1.56103 -1.46484,2.99861 -0.65259,5.04447 -2.48857,10.04215 -4.30891,11.72918 l -0.90617,0.83981 h 1.28624 c 1.72418,0 1.62618,0.48695 -0.21307,1.05874 -0.82462,0.25637 -2.61055,0.90451 -3.96875,1.44033 -1.35819,0.53582 -5.56507,1.9549 -9.34861,3.15351 -3.78354,1.19861 -8.22854,2.63019 -9.87778,3.1813 -1.64923,0.55109 -4.66548,1.50122 -6.70277,2.11138 -2.0373,0.61017 -5.92667,1.79921 -8.64306,2.64231 -2.71639,0.8431 -6.20889,1.92641 -7.76111,2.40735 -1.55222,0.48093 -7.6641,2.41031 -13.58194,4.2875 -5.91785,1.8772 -11.55348,3.6499 -12.52361,3.93935 -0.97014,0.28945 -2.63702,0.81892 -3.70417,1.1766 -4.99288,1.67347 -16.61332,3.46787 -18.64815,2.8796 z m 91.29801,-34.53977 c -0.0206,-1.21845 -0.0495,-1.25509 -0.36552,-0.464 -0.18873,0.4724 -0.26303,1.06771 -0.1651,1.32291 0.3256,0.8485 0.55325,0.48 0.53062,-0.85891 z m 1.43347,1.16735 c 0,-0.0856 -0.15875,-0.25369 -0.35278,-0.3736 -0.19403,-0.11992 -0.35278,-0.0499 -0.35278,0.15557 0,0.20547 0.15875,0.37359 0.35278,0.37359 0.19403,0 0.35278,-0.07 0.35278,-0.15556 z m 0.0472,-1.69652 c -0.11449,-0.71592 -0.23524,-0.90692 -0.32152,-0.50856 -0.13131,0.60634 0.10853,1.65509 0.37851,1.65509 0.0695,0 0.0439,-0.51594 -0.057,-1.14653 z m 2.56086,-0.11705 c 0.35645,-0.92889 0.24329,-1.29254 -0.33336,-1.07126 -0.34855,0.13375 -0.45889,0.0667 -0.30367,-0.18441 0.13864,-0.22433 0.059,-0.33292 -0.18452,-0.25173 -0.23559,0.0785 -0.41196,0.21819 -0.39193,0.31035 0.39644,1.8239 0.81463,2.23644 1.21348,1.19705 z m -5.6067,-0.14753 c 0.11991,-0.19403 0.0499,-0.35278 -0.15557,-0.35278 -0.20548,0 -0.3736,0.15875 -0.3736,0.35278 0,0.19403 0.07,0.35278 0.15557,0.35278 0.0856,0 0.25368,-0.15875 0.3736,-0.35278 z m 3.88055,0 c 0.11992,-0.19403 0.0499,-0.35278 -0.15556,-0.35278 -0.20548,0 -0.3736,0.15875 -0.3736,0.35278 0,0.19403 0.07,0.35278 0.15557,0.35278 0.0856,0 0.25368,-0.15875 0.37359,-0.35278 z m -2.46204,-5.98291 c -0.30508,-0.58996 -0.63935,-1.07265 -0.74284,-1.07265 -0.10348,0 -0.10195,0.13947 0.004,0.30993 0.1773,0.28687 -0.35854,1.69937 -1.28761,3.39424 -0.33301,0.6075 -0.31309,0.6447 0.14335,0.26764 0.29156,-0.24085 0.63456,-0.33345 0.76223,-0.20579 0.12754,0.12767 0.232,-0.11183 0.232,-0.53222 0,-0.44424 0.22161,-0.76435 0.52916,-0.76435 0.40114,0 0.54562,0.49078 0.59714,2.02847 l 0.068,2.02847 0.12488,-2.19054 c 0.0861,-1.51039 -0.0474,-2.5236 -0.42981,-3.2632 z m 6.05442,4.15287 c -0.11261,-0.28142 -0.19621,-0.19783 -0.21314,0.21314 -0.0153,0.37188 0.0681,0.58025 0.18529,0.46302 0.11723,-0.11723 0.12976,-0.4215 0.0278,-0.67616 z m -2.35765,-0.99218 c -0.20768,-0.38806 -0.43653,-0.70556 -0.50855,-0.70556 -0.072,0 -0.0479,0.3175 0.0536,0.70556 0.10148,0.38805 0.33033,0.70555 0.50855,0.70555 0.17903,0 0.15506,-0.31576 -0.0536,-0.70555 z m -2.14814,-0.29399 c 0.26147,-0.48855 0.22136,-0.64676 -0.16397,-0.64676 -0.28057,0 -0.51012,0.29104 -0.51012,0.64676 0,0.35572 0.0738,0.64676 0.16398,0.64676 0.0902,0 0.31974,-0.29104 0.51011,-0.64676 z m 4.22964,-3.32199 c 0.0415,-1.14374 -0.80656,-1.31606 -1.73611,-0.35277 -0.5605,0.58083 -0.54139,0.68087 0.32318,1.69099 0.86823,1.01441 0.93158,1.03387 1.14834,0.35278 0.12619,-0.39647 0.24525,-1.15742 0.26459,-1.691 z m -3.69097,0.75693 c 0.0962,-0.0962 -0.20649,-0.17484 -0.67256,-0.17484 -0.46607,0 -0.77765,0.11286 -0.6924,0.2508 0.16494,0.26687 1.07264,0.21635 1.36496,-0.076 z m -0.85998,-1.88263 c 0,-0.0856 -0.15875,-0.25369 -0.35278,-0.3736 -0.19402,-0.11992 -0.35277,-0.0499 -0.35277,0.15557 0,0.20547 0.15875,0.37359 0.35277,0.37359 0.19403,0 0.35278,-0.07 0.35278,-0.15556 z m -2.46944,-0.54999 c -0.29104,-0.18809 -0.76729,-0.34197 -1.05834,-0.34197 -0.47037,0 -0.47037,0.038 0,0.34197 0.29105,0.18809 0.7673,0.34197 1.05834,0.34197 0.47037,0 0.47037,-0.038 0,-0.34197 z m 6.35,0.21413 c 0,-0.0763 -0.23813,-0.23002 -0.52917,-0.34171 -0.29104,-0.11168 -0.52917,-0.0493 -0.52917,0.13865 0,0.18794 0.23813,0.34171 0.52917,0.34171 0.29104,0 0.52917,-0.0624 0.52917,-0.13865 z m 0.52916,-0.56691 c -0.11991,-0.19403 -0.40709,-0.35035 -0.63818,-0.34738 -0.25245,0.003 -0.20894,0.1419 0.10902,0.34738 0.67773,0.43799 0.79985,0.43799 0.52916,0 z m -7.28124,-0.81483 c 0.5937,0.36781 0.65492,0.33251 0.49356,-0.28453 -0.11409,-0.43631 -0.37896,-0.6297 -0.69586,-0.50809 -0.28142,0.10799 -0.65743,0.19634 -0.83559,0.19634 -0.17815,0 -0.32149,0.27781 -0.31852,0.61736 0.005,0.52665 0.0549,0.53961 0.34201,0.0882 0.27091,-0.42587 0.46892,-0.44721 1.0144,-0.10928 z m 2.51334,0.19747 c -0.0128,-0.62716 -0.61616,-1.21506 -0.85326,-0.83141 -0.13272,0.21474 -0.1432,0.54919 -0.0233,0.74322 0.25432,0.41148 0.88444,0.47488 0.87655,0.0882 z m 2.47485,-0.44097 c 0,-0.41406 -0.27115,-0.41406 -1.23472,0 -0.62521,0.26866 -0.59508,0.30601 0.26458,0.32798 0.53358,0.0136 0.97014,-0.13395 0.97014,-0.32798 z m -1.47344,-1.64646 c -0.16932,-0.87305 -0.87829,-0.95846 -1.09445,-0.13186 -0.14271,0.54574 -0.0193,0.71998 0.51011,0.71998 0.46235,0 0.65985,-0.19878 0.58434,-0.58812 z m 3.59011,0.2178 c 0.29523,-0.0152 0.16647,-0.17258 -0.29128,-0.3561 -0.61869,-0.24804 -0.96569,-0.18348 -1.41111,0.26254 -0.55252,0.55325 -0.5337,0.57625 0.29127,0.3561 0.48507,-0.12945 1.12007,-0.24759 1.41112,-0.26254 z m -4.93889,-1.04079 c 0,-0.19402 -0.15875,-0.35277 -0.35278,-0.35277 -0.19403,0 -0.35278,0.15875 -0.35278,0.35277 0,0.19403 0.15875,0.35278 0.35278,0.35278 0.19403,0 0.35278,-0.15875 0.35278,-0.35278 z m 2.66914,-0.97014 c 0.74916,-1.0021 0.80209,-1.15994 0.21826,-0.65087 -0.75792,0.66086 -0.771,0.66086 -0.78665,0 -0.0114,-0.47956 -0.14886,-0.36892 -0.48008,0.38629 -0.40362,0.92028 -0.42641,1.5875 -0.0542,1.5875 0.0625,0 0.55874,-0.59531 1.10269,-1.32292 z m -5.25038,0.19844 c -0.11261,-0.28142 -0.19621,-0.19783 -0.21313,0.21314 -0.0153,0.37188 0.0681,0.58024 0.18528,0.46302 0.11723,-0.11723 0.12976,-0.4215 0.0278,-0.67616 z m 7.8729,-0.74488 c 0,-0.79571 -0.12029,-1.29594 -0.26731,-1.11161 -0.14703,0.18433 -0.70222,0.81963 -1.23377,1.41178 l -0.96645,1.07664 1.23377,0.035 c 1.21496,0.0344 1.23376,0.0129 1.23376,-1.41178 z m -8.57846,0.3921 c -0.11261,-0.28142 -0.1962,-0.19783 -0.21313,0.21314 -0.0153,0.37189 0.0681,0.58025 0.18529,0.46302 0.11722,-0.11723 0.12975,-0.4215 0.0278,-0.67616 z m 3.09767,-0.50348 c 0.0778,-0.3658 0.38864,-1.45884 0.69067,-2.42898 0.30203,-0.97014 0.52997,-2.31952 0.50653,-2.99861 l -0.0426,-1.23472 -0.2599,1.23472 -0.2599,1.23472 -0.0464,-1.34374 c -0.0846,-2.44888 -0.75199,-0.98744 -0.75199,1.64678 0,1.40495 -0.15355,2.70801 -0.34123,2.89568 -0.18767,0.18767 -0.24688,0.70197 -0.13158,1.14288 0.23325,0.89197 0.42452,0.84728 0.63646,-0.14873 z m 1.78146,-1.33507 c 0.2988,-1.02784 0.43266,-2.15705 0.29747,-2.50936 -0.15626,-0.4072 -0.1111,-0.55731 0.12396,-0.41204 0.2154,0.13313 0.46307,-0.23796 0.59326,-0.88889 0.14605,-0.73026 0.0693,-1.21395 -0.22163,-1.39604 -0.44415,-0.27801 -0.95078,1.50938 -1.63501,5.76827 -0.34608,2.15416 0.14828,1.82421 0.84195,-0.56194 z m 1.93544,0.34456 c 0,0.68189 0.80616,-0.58911 0.89668,-1.41371 0.11421,-1.0404 0.15384,-1.0204 -1.08701,-0.54863 -0.78698,0.29921 -0.90443,0.50707 -0.71438,1.26429 0.16404,0.6536 0.10997,0.8336 -0.19399,0.64574 -0.27222,-0.16824 -0.32855,-0.11019 -0.15912,0.16396 0.20085,0.32499 0.37892,0.32764 0.76007,0.0113 0.27376,-0.22722 0.49775,-0.28256 0.49775,-0.12298 z m -4.23333,-1.96764 c 0,-0.75321 -0.14212,-1.4573 -0.31581,-1.56465 -0.51208,-0.31648 -0.77249,0.84949 -0.36131,1.61777 0.20827,0.38917 0.28889,0.94154 0.17916,1.22749 -0.11213,0.29221 -0.0468,0.42553 0.14922,0.30439 0.19181,-0.11854 0.34874,-0.83179 0.34874,-1.585 z m 4.82665,-2.75128 c -0.35082,-0.76999 -0.40652,-0.78674 -0.64038,-0.19256 -0.39739,1.00971 -0.35434,1.13977 0.35946,1.086 0.57026,-0.043 0.61035,-0.17044 0.28092,-0.89344 z m -100.93364,48.43741 c -0.678318,-0.67833 -1.415398,-1.59114 -1.637958,-2.02847 -0.26186,-0.51458 -0.0487,-0.38553 0.6042,0.36573 0.55486,0.63849 1.485088,1.5456 2.067168,2.01579 0.58209,0.47019 0.86519,0.8606 0.62912,0.86758 -0.23606,0.007 -0.9842,-0.54231 -1.66253,-1.22063 z m 18.0038,-1.29608 c 0.17524,-0.28355 0.0569,-0.33668 -0.37814,-0.16974 -0.63741,0.2446 -3.26332,-1.39878 -2.86751,-1.79459 0.10403,-0.10402 -0.11546,-0.6169 -0.48774,-1.13972 -1.84561,-2.59191 -3.18283,-8.0733 -3.18283,-13.04666 0,-7.27849 2.83238,-15.03875 6.51378,-17.84669 1.84694,-1.40874 4.48561,-1.59909 6.18622,-0.44627 1.44874,0.98207 3.33027,3.96103 4.07878,6.45779 2.97652,9.9285 -0.29462,24.33965 -6.18646,27.2547 -0.77035,0.38114 -1.29919,0.79445 -1.17519,0.91845 0.124,0.124 -0.44536,0.22546 -1.26527,0.22546 -1.04834,0 -1.41503,-0.12248 -1.23564,-0.41273 z m -1.97733,-1.13158 c 0,-0.0733 -0.27781,-0.35106 -0.61736,-0.61736 -0.55953,-0.43881 -0.57201,-0.42633 -0.1332,0.1332 0.46086,0.58764 0.75056,0.77451 0.75056,0.48416 z m 4.93889,-0.24126 c 0.39539,-0.27173 0.17244,-0.33725 -0.88195,-0.25919 l -1.41111,0.10448 -0.0996,-1.41111 c -0.0548,-0.77611 0.0306,-3.14005 0.18965,-5.25321 0.21902,-2.90893 0.18303,-3.94833 -0.14816,-4.27953 -0.24059,-0.24059 -0.36221,-0.51266 -0.27027,-0.6046 0.0919,-0.0919 0.0151,-0.54741 -0.17083,-1.01214 l -0.33799,-0.84496 -0.0224,0.81694 c -0.0123,0.44932 -0.18669,1.124 -0.38755,1.4993 -0.28734,0.5369 -0.24974,0.68237 0.17639,0.68237 0.6345,0 0.63092,-0.0853 0.17741,4.23333 -0.42893,4.08452 -0.62195,4.79944 -1.15254,4.26884 -0.54586,-0.54585 -1.1092,-0.49246 -0.73135,0.0693 0.16928,0.25168 0.0414,0.1689 -0.28408,-0.18397 -0.32551,-0.35286 -0.67828,-0.50171 -0.78393,-0.33077 -0.19621,0.31747 1.23991,1.7553 2.46121,2.46413 0.85515,0.49632 2.97992,0.51989 3.67708,0.0408 z m -3.1193,-0.68388 c 0,-0.48506 0.0801,-0.6835 0.17793,-0.44097 0.0979,0.24254 0.0979,0.63941 0,0.88195 -0.0979,0.24253 -0.17793,0.0441 -0.17793,-0.44098 z m 5.03043,-1.10548 c -0.35239,-0.57018 -0.76989,-0.30905 -0.94155,0.5889 -0.16239,0.84948 -0.13823,0.86487 0.47972,0.30563 0.3579,-0.3239 0.56572,-0.72643 0.46183,-0.89453 z m -1.55836,0.98377 c 0,-0.0669 -0.29104,-0.3851 -0.64675,-0.70702 -0.53501,-0.48417 -0.64677,-0.4963 -0.64677,-0.0702 0,0.28331 0.12133,0.44013 0.26961,0.34849 0.14828,-0.0917 0.36932,-0.005 0.49119,0.1919 0.21366,0.34571 0.53272,0.48755 0.53272,0.23682 z m -0.828,-3.84653 -0.7595,-2.90991 -0.17638,2.11616 c -0.16061,1.92685 -0.0975,2.18603 0.70555,2.89723 0.48507,0.42958 0.90622,0.78677 0.93588,0.79375 0.0297,0.007 -0.28784,-1.29678 -0.70555,-2.89723 z m 4.8795,-0.27527 0.82021,-1.59768 -0.93655,0.0314 c -1.1806,0.0396 -2.22786,1.94069 -1.91964,3.48467 0.19517,0.97767 0.22882,0.99438 0.71032,0.35277 0.27799,-0.37043 0.87454,-1.39247 1.32566,-2.2712 z m -8.79886,0.20862 c 0.35287,-2.3531 0.0878,-2.4861 -0.97424,-0.48881 l -0.9591,1.80373 0.9591,-0.83959 c 0.52751,-0.46177 0.76067,-0.61178 0.51813,-0.33335 -0.51889,0.5957 -0.58274,1.42347 -0.10981,1.42347 0.18214,0 0.4368,-0.70445 0.56592,-1.56545 z m -2.02355,-2.14805 c -0.10861,-0.10862 -0.30587,0.0872 -0.43835,0.43509 -0.19145,0.50278 -0.15093,0.5433 0.19749,0.19749 0.24109,-0.23931 0.34948,-0.52396 0.24086,-0.63258 z m 6.59136,-2.29303 c -0.48597,-1.42882 -1.08095,-2.73939 -1.32216,-2.91238 -0.28502,-0.2044 -0.14288,-0.24896 0.406,-0.12726 0.60322,0.13374 0.73602,0.0787 0.46469,-0.19263 -0.20894,-0.20894 -0.62444,-0.28604 -0.92334,-0.17134 -0.46797,0.17958 -0.42274,0.46782 0.32562,2.07531 0.47799,1.02673 0.87063,2.06737 0.87252,2.31253 0.004,0.47638 0.7909,1.883 0.95947,1.71442 0.0554,-0.0554 -0.29683,-1.26982 -0.7828,-2.69865 z m -5.38017,1.00074 c -0.0948,-0.36251 0.0675,-0.7192 0.38215,-0.83995 0.32478,-0.12463 0.45997,-0.43645 0.33285,-0.76771 -0.11774,-0.30682 -0.068,-0.4679 0.11047,-0.35796 0.17849,0.10994 0.35783,-0.26089 0.39852,-0.82407 0.0407,-0.56318 -0.0784,-1.02396 -0.26458,-1.02396 -0.18622,0 -0.33857,0.16812 -0.33857,0.37359 0,0.20548 -0.15875,0.27549 -0.35278,0.15557 -0.33601,-0.20766 -0.42705,-0.0251 -0.48373,0.97014 -0.0138,0.24254 -0.21731,1.0256 -0.45222,1.74016 -0.38641,1.17537 -0.36709,1.29466 0.20277,1.25173 0.42159,-0.0317 0.57541,-0.25581 0.46512,-0.67754 z m 9.11529,0.27677 c -0.34734,-0.41852 -1.02809,-0.49266 -1.79168,-0.19512 -0.097,0.0378 0.29986,0.18992 0.88195,0.33803 0.58208,0.14811 1.11746,0.28808 1.18972,0.31104 0.0723,0.023 -0.0537,-0.18132 -0.27999,-0.45395 z m -9.67461,-4.34677 0.47718,-1.13828 -0.90698,0.34483 c -2.16946,0.82483 -2.3537,1.0333 -2.12441,2.40383 0.11887,0.71049 0.22057,1.68867 0.22599,2.17374 0.008,0.72262 0.17616,0.5633 0.93045,-0.88194 0.50632,-0.97014 1.13532,-2.27612 1.39777,-2.90218 z m 11.45571,3.87232 c 0.42838,-0.54623 0.41946,-0.56691 -0.0775,-0.17945 -0.30889,0.24085 -0.69153,0.32022 -0.85031,0.17639 -0.15877,-0.14384 -0.17449,-0.0631 -0.0349,0.17945 0.32801,0.56998 0.38562,0.55942 0.96268,-0.17639 z m -3.35356,-0.75821 c 0.27687,0.22978 0.57697,0.34419 0.66692,0.25425 0.0899,-0.0899 -0.2862,-0.49601 -0.83586,-0.90239 l -0.99937,-0.73887 0.18015,0.94032 c 0.0991,0.51717 0.24868,0.73525 0.33246,0.48462 0.11829,-0.35391 0.26477,-0.36238 0.6557,-0.0379 z m -11.27447,-1.18207 c -0.0979,-0.24253 -0.17794,-0.0441 -0.17794,0.44097 0,0.48507 0.0801,0.68351 0.17794,0.44097 0.0979,-0.24253 0.0979,-0.6394 0,-0.88194 z m 15.61218,-2.36058 c 0.20048,-1.24981 0.29646,-2.34043 0.2133,-2.4236 -0.0832,-0.0832 -0.69734,-0.0488 -1.36483,0.0765 -1.07265,0.20123 -1.23059,0.37301 -1.35969,1.47885 -0.16636,1.42499 0.42641,2.51674 1.13028,2.08172 0.29413,-0.18178 0.37521,-0.14629 0.22416,0.0981 -0.13016,0.2106 -0.0727,0.48422 0.12763,0.60805 0.20036,0.12383 0.25904,0.41261 0.13039,0.64174 -0.15995,0.28489 -0.11247,0.30506 0.15018,0.0638 0.21123,-0.19402 0.5481,-1.37535 0.74858,-2.62516 z m -4.9097,-0.15386 c 0,-0.0733 -0.27782,-0.35107 -0.61737,-0.61737 -0.55952,-0.43881 -0.572,-0.42633 -0.13319,0.1332 0.46086,0.58764 0.75056,0.77452 0.75056,0.48417 z m -7.25521,-1.66834 c -0.0907,-0.14678 0.19491,-0.52032 0.63472,-0.83011 0.67835,-0.47781 0.71938,-0.61444 0.27049,-0.90068 -0.29105,-0.18559 -0.68792,-0.33743 -0.88195,-0.33743 -0.19403,0 -0.13739,0.13647 0.12586,0.30328 0.59696,0.37825 0.25379,0.58295 -1.51256,0.90226 -1.06176,0.19193 -1.26842,0.33326 -0.88195,0.60311 0.3746,0.26156 0.25459,0.31246 -0.46538,0.19736 -0.68827,-0.11003 -0.97014,-0.005 -0.97014,0.3629 0,0.33534 0.20419,0.43964 0.57907,0.29579 0.47283,-0.18144 0.50112,-0.1283 0.15423,0.28968 -0.3565,0.42955 -0.14033,0.42092 1.34385,-0.0537 0.97277,-0.31109 1.69447,-0.68569 1.60376,-0.83246 z m 5.49132,1.31556 c 0,-0.0733 -0.27782,-0.35107 -0.61736,-0.61736 -0.55953,-0.43881 -0.57201,-0.42634 -0.1332,0.13319 0.46086,0.58764 0.75056,0.77452 0.75056,0.48417 z m -2.82223,-2.23948 c 0,-0.27015 0.11907,-0.41911 0.26459,-0.33101 0.37397,0.22641 0.97929,-0.54571 0.92264,-1.17687 -0.10065,-1.12113 -0.20837,-1.20377 -0.45987,-0.35278 -0.14336,0.48507 -0.42291,0.84963 -0.62123,0.81014 -0.19832,-0.0395 -0.526,0.29123 -0.72817,0.73495 -0.28785,0.63176 -0.26025,0.80676 0.12723,0.80676 0.27215,0 0.49481,-0.22103 0.49481,-0.49119 z m -4.93888,-0.23202 c 0,-0.0744 -0.31772,-0.21832 -0.70605,-0.31987 -0.38832,-0.10155 -0.61708,-0.0407 -0.50834,0.13524 0.18988,0.30724 1.21439,0.463 1.21439,0.18463 z m 13.40555,-0.004 c 0,-0.0763 -0.23812,-0.23003 -0.52917,-0.34171 -0.29104,-0.11168 -0.52916,-0.0493 -0.52916,0.13864 0,0.18794 0.23812,0.34171 0.52916,0.34171 0.29105,0 0.52917,-0.0624 0.52917,-0.13864 z m -11.73721,-0.42727 c -0.11722,-0.11723 -0.4215,-0.12976 -0.67616,-0.0278 -0.28142,0.11262 -0.19783,0.19621 0.21314,0.21314 0.37189,0.0153 0.58025,-0.0681 0.46302,-0.18529 z m 8.01258,-0.4593 c 0.10866,-0.17582 0.47521,-0.24759 0.81457,-0.1595 0.33935,0.0881 0.91987,-0.0621 1.29004,-0.33368 0.64174,-0.47087 0.62688,-0.50542 -0.31931,-0.7429 -0.66475,-0.16685 -1.08896,-0.0967 -1.285,0.21236 -0.2166,0.34153 -0.29405,0.34883 -0.29805,0.0281 -0.004,-0.28782 -0.53707,-0.4102 -1.58866,-0.36443 -1.05548,0.0459 -1.40828,0.16683 -1.05834,0.36267 0.28872,0.16157 0.52494,0.52401 0.52494,0.80541 0,0.56385 1.59161,0.72301 1.91981,0.19198 z m -8.97537,-1.13246 c 0,-0.6084 0.16513,-0.71511 0.89169,-0.57622 0.98733,0.18874 1.06889,0.44259 -0.77399,-2.40891 -0.72,-1.11405 -0.98753,-0.73263 -1.31848,1.87973 -0.2159,1.70424 -0.17734,1.85209 0.48308,1.85209 0.49569,0 0.7177,-0.23097 0.7177,-0.74669 z m 1.76389,0.39391 c 0,-0.19403 -0.23812,-0.35278 -0.52917,-0.35278 -0.29104,0 -0.52916,0.15875 -0.52916,0.35278 0,0.19403 0.23812,0.35278 0.52916,0.35278 0.29105,0 0.52917,-0.15875 0.52917,-0.35278 z m 11.8989,-0.56592 c -0.11722,-0.11722 -0.4215,-0.12975 -0.67616,-0.0278 -0.28142,0.11261 -0.19783,0.19621 0.21314,0.21313 0.37188,0.0153 0.58025,-0.0681 0.46302,-0.18528 z m -7.46302,-1.30529 c 0.0483,-0.32903 -0.0739,-0.59823 -0.2715,-0.59823 -0.19762,0 -0.26115,0.25579 -0.14118,0.56844 0.1584,0.41277 0.0671,0.51049 -0.33336,0.35682 -0.33233,-0.12753 -0.46126,-0.0656 -0.32445,0.15573 0.32086,0.51916 0.96615,0.22815 1.07049,-0.48276 z m 6.76481,0.5697 c -0.33954,-0.0887 -0.89517,-0.0887 -1.23472,0 -0.33955,0.0887 -0.0617,0.16133 0.61736,0.16133 0.6791,0 0.95691,-0.0726 0.61736,-0.16133 z m -5.20347,-0.57277 c 0,-0.25474 0.4746,-0.91785 1.05466,-1.47359 0.58005,-0.55573 0.99912,-1.06595 0.93125,-1.13382 -0.0679,-0.0679 0.394,-0.68828 1.02638,-1.37868 1.12497,-1.22817 1.36933,-2.26289 0.59534,-2.52088 -0.21321,-0.0711 -0.66449,0.31719 -1.00284,0.86282 -0.90668,1.4621 -2.67732,3.2851 -3.19074,3.2851 -0.24616,0 -0.62773,0.33665 -0.84794,0.74812 -0.30506,0.57 -0.30117,0.68681 0.0163,0.49061 0.26949,-0.16656 0.39219,-0.0258 0.34735,0.3984 -0.1072,1.01406 -0.0291,1.18509 0.54108,1.18509 0.29104,0 0.52916,-0.20843 0.52916,-0.46317 z m -4.58611,-0.60922 c 0,-0.6991 -1.34676,-2.98858 -2.25872,-3.8398 -1.26692,-1.18252 -1.14602,-0.51944 0.37141,2.03713 1.19811,2.01859 1.88731,2.67688 1.88731,1.80267 z m 1.32984,-1.67138 c -0.27797,-0.33492 -0.46691,-0.37417 -0.55333,-0.11494 -0.0722,0.21651 -0.30093,0.28877 -0.50837,0.16057 -0.22479,-0.13894 -0.27403,-0.0662 -0.12188,0.17994 0.1404,0.22717 0.38825,0.33086 0.55077,0.23041 0.16253,-0.10045 0.21915,0.17478 0.12583,0.61161 -0.1645,0.77006 -0.15295,0.77364 0.3797,0.11762 0.43237,-0.5325 0.45947,-0.78494 0.12728,-1.18521 z m 5.72572,0.93824 c 0,-0.19403 -0.15875,-0.25467 -0.35278,-0.13475 -0.19403,0.11992 -0.35278,0.37678 -0.35278,0.57081 0,0.19402 0.15875,0.25466 0.35278,0.13475 0.19403,-0.11992 0.35278,-0.37678 0.35278,-0.57081 z m 3.35139,0.39442 c 0.11991,-0.19403 -0.0165,-0.35278 -0.30311,-0.35278 -0.28662,0 -0.80673,-0.10959 -1.15579,-0.24354 -0.56688,-0.21753 -0.57938,-0.18129 -0.11705,0.33936 0.59052,0.665 1.25663,0.77361 1.57595,0.25696 z m 0.30072,-2.64584 c 0.14455,-1.18738 0.10979,-1.53328 -0.10639,-1.05833 -0.30781,0.67628 -0.32216,0.67262 -0.34593,-0.0882 -0.0353,-1.1318 -0.40005,-0.96137 -1.66829,0.77964 -0.81116,1.11353 -0.96008,1.50709 -0.54737,1.44651 0.31183,-0.0458 0.96478,0.12318 1.451,0.37543 0.48622,0.25225 0.91063,0.42494 0.94314,0.38374 0.0325,-0.0412 0.15573,-0.86866 0.27384,-1.8388 z m -6.31439,-1.40676 c 0.66963,-2.30345 0.67507,-2.81603 0.015,-1.41546 -0.4804,1.01938 -0.49163,1.02357 -0.30503,0.11375 0.10654,-0.51952 0.011,-1.2339 -0.21235,-1.5875 -0.35515,-0.5623 -0.38765,-0.5226 -0.25918,0.31655 0.0808,0.5277 0.0309,0.88777 -0.11087,0.80016 -0.14176,-0.0876 -0.36003,0.48028 -0.48502,1.262 -0.12687,0.79338 -0.38012,1.32684 -0.57323,1.20749 -0.19028,-0.1176 -0.34596,0.0337 -0.34596,0.33618 0,0.30249 0.15875,0.54998 0.35278,0.54998 0.19402,0 0.35277,0.25757 0.35277,0.57236 0,1.15109 1.01441,-0.24068 1.57106,-2.15551 z m -4.19955,-1.28462 c -0.13759,-1.57727 -0.37389,-3.20222 -0.5251,-3.61099 -0.24857,-0.67195 -0.34736,-0.60126 -1.03011,0.73705 -0.41535,0.81415 -0.75519,1.6348 -0.75519,1.82366 0,0.40473 2.14432,3.91805 2.39134,3.91805 0.0931,0 0.0566,-1.29049 -0.0809,-2.86777 z m 0.75501,0.13375 c -0.0887,-0.33955 -0.16134,-0.0617 -0.16134,0.61736 0,0.67909 0.0726,0.95691 0.16134,0.61736 0.0887,-0.33955 0.0887,-0.89518 0,-1.23472 z m 1.04879,-0.52917 c -0.0979,-0.24254 -0.17794,-0.0441 -0.17794,0.44097 0,0.48507 0.0801,0.68351 0.17794,0.44097 0.0979,-0.24253 0.0979,-0.63941 0,-0.88194 z m 4.34707,-0.3736 c 0.003,-0.15697 -0.15335,-0.18729 -0.34738,-0.0674 -0.19402,0.11991 -0.35034,0.48647 -0.34737,0.81457 0.005,0.51409 0.0527,0.5234 0.34737,0.0674 0.18809,-0.29104 0.34441,-0.6576 0.34738,-0.81457 z m 1.20262,-0.44963 c 0.13184,-0.34357 0.053,-0.50485 -0.20479,-0.41892 -0.52735,0.17578 -0.8177,0.97757 -0.35401,0.97757 0.18943,0 0.44089,-0.25139 0.5588,-0.55865 z m -6.25525,-0.94066 c -0.0979,-0.24254 -0.17794,-0.0441 -0.17794,0.44097 0,0.48507 0.0801,0.68351 0.17794,0.44097 0.0979,-0.24253 0.0979,-0.63941 0,-0.88194 z m 3.9997,0.49977 c 0,-0.16169 -0.23813,-0.29398 -0.52917,-0.29398 -0.29104,0 -0.52917,0.13229 -0.52917,0.29398 0,0.16169 0.23813,0.29398 0.52917,0.29398 0.29104,0 0.52917,-0.13229 0.52917,-0.29398 z m -2.12207,-1.04976 c -0.005,-0.51409 -0.0527,-0.5234 -0.34738,-0.0674 -0.44647,0.69087 -0.44647,1.15788 0,0.88194 0.19403,-0.11991 0.35035,-0.48647 0.34738,-0.81457 z m 6.17347,-0.0763 c -0.10639,-0.17215 -0.43979,-0.21846 -0.74089,-0.10292 -0.42763,0.1641 -0.44814,0.27145 -0.0937,0.49048 0.53509,0.33071 1.11276,0.0625 0.83463,-0.38756 z m -1.74718,-0.48474 c 0.60796,-0.44455 0.62592,-0.58575 0.18038,-1.41824 -0.34411,-0.64299 -0.60707,-0.81225 -0.8635,-0.55582 -0.25643,0.25643 -0.22648,0.59647 0.0984,1.11661 0.39636,0.63468 0.39057,0.71854 -0.0382,0.554 -0.29076,-0.11158 -0.50531,0.0165 -0.50531,0.30163 0,0.62495 0.27551,0.6254 1.1283,0.002 z m -4.56788,-0.9174 c 0.27487,0 0.49977,-0.14577 0.49977,-0.32393 0,-0.17816 0.0971,-0.57683 0.21567,-0.88594 0.1656,-0.43155 0.0632,-0.50626 -0.44098,-0.32182 -0.61237,0.22402 -0.60907,0.18493 0.0489,-0.57977 l 0.70556,-0.81998 -0.97014,0.62434 c -0.77821,0.50084 -0.96463,0.87805 -0.94229,1.9067 0.0153,0.70529 0.10792,1.0839 0.20579,0.84137 0.0979,-0.24254 0.40283,-0.44097 0.6777,-0.44097 z m -2.08147,-1.12448 c -0.11261,-0.28142 -0.19621,-0.19783 -0.21313,0.21314 -0.0153,0.37188 0.0681,0.58024 0.18528,0.46302 0.11723,-0.11723 0.12976,-0.4215 0.0278,-0.67616 z m 0.86235,-1.60955 c 0.44786,-0.57106 0.43125,-0.57855 -0.22139,-0.0998 -0.38805,0.28465 -0.7717,0.56246 -0.85255,0.61737 -0.0808,0.0549 0.0188,0.0998 0.22139,0.0998 0.20261,0 0.58626,-0.27781 0.85255,-0.61736 z m -56.749088,29.3577 c -0.8219,-0.25876 -5.34628,-0.72277 -10.05416,-1.03115 -4.70789,-0.30837 -10.40879,-0.71469 -12.66867,-0.90292 -3.40973,-0.28401 -4.32321,-0.25269 -5.36853,0.18408 -0.69282,0.28947 -1.4632,0.51424 -1.71197,0.49948 -0.24876,-0.0148 0.10333,-0.24081 0.78242,-0.50233 0.6791,-0.26152 0.9966,-0.48776 0.70556,-0.50275 -2.51404,-0.12955 -18.93193,-2.28398 -20.6375,-2.70815 -1.23137,-0.30624 1.20592,1.59147 3.33457,2.59635 1.61048,0.76027 1.8114,0.95186 1.23473,1.17746 -1.16431,0.45549 -2.27625,0.35825 -2.27625,-0.19906 0,-0.33829 -0.20372,-0.43992 -0.58703,-0.29283 -0.44209,0.16965 -0.51079,0.10158 -0.27823,-0.27565 0.22304,-0.36179 0.0524,-0.33324 -0.61447,0.1028 -0.74323,0.48601 -0.90882,0.50519 -0.84911,0.0984 0.0408,-0.27793 0.17091,-0.60207 0.28915,-0.72031 0.11825,-0.11825 -0.38588,-0.75784 -1.12027,-1.42132 -1.18873,-1.07395 -1.55444,-1.20634 -3.3323204,-1.20634 -1.09837,0 -2.58726,-0.24485 -3.30863,-0.54411 -1.99569,-0.8279 -4.96794997,-2.70304 -5.18623997,-3.27188 -0.14878,-0.38773 0.0344,-0.36004 0.78183997,0.11819 l 0.97615,0.62455 -0.88195,-0.99546 -0.88193997,-0.99546 1.05832997,0.72351 c 2.89247,1.9774 5.24656,2.8257 8.4666704,3.05096 1.74625,0.12215 4.473,0.45284 6.05944,0.73485 7.39139,1.31392 19.81644,2.56208 35.26578,3.54263 4.60341,0.29218 9.3731,0.79219 10.93611,1.14645 5.16145,1.16984 40.230278,0.68218 41.508798,-0.57722 0.2892,-0.28487 0.78314,-3.21424 1.81919,-10.78895 1.17839,-8.61543 2.39943,-13.06361 5.03141,-18.32915 6.08143,-12.16651 14.70905,-13.90857 19.71939,-3.98168 2.02234,4.00682 2.40101,6.22881 2.38937,14.02055 -0.009,5.70883 -0.127,7.29991 -0.69634,9.35227 l -0.68605,2.4731 4.76672,-1.67074 c 9.25746,-3.24474 41.24963,-13.12404 41.54456,-12.82912 0.28941,0.28942 -5.41947,2.24106 -19.67116,6.72483 -8.43853,2.65487 -18.08765,5.78653 -21.44249,6.95924 -3.35484,1.17271 -6.18617,2.04574 -6.29184,1.94007 -0.10568,-0.10567 0.17857,-1.59414 0.63165,-3.3077 0.72531,-2.74313 0.82362,-3.9168 0.82241,-9.81834 -10e-4,-6.43114 -0.0426,-6.82867 -1.0182,-9.80925 -4.11391,-12.56831 -12.78972,-12.4397 -19.17457,0.28425 -2.73957,5.45952 -3.94866,10.2586 -5.5281,21.94193 -0.47732,3.53084 -1.03533,6.73263 -1.24001,7.11508 -0.20468,0.38245 -0.81003,0.78574 -1.34522,0.89619 -4.786418,0.98783 -38.357338,1.29255 -41.272998,0.37464 z M 9.4322916,171.26472 c -0.24254,-0.0979 -0.63941,-0.0979 -0.88194,0 -0.24254,0.0979 -0.0441,0.17794 0.44097,0.17794 0.48507,0 0.6835,-0.0801 0.44097,-0.17794 z m 9.5931304,5.49285 c -0.16884,-0.27319 0.46638,-0.31186 2.18405,-0.13295 3.15122,0.32822 3.29238,0.51818 0.38507,0.51818 -1.30441,0 -2.43589,-0.16966 -2.56912,-0.38523 z m 36.70895,-2.09554 c -16.05679,-1.02298 -28.09452,-2.20385 -39.86389,-3.91055 -8.0174704,-1.16263 -11.1515004,-2.13097 -14.0575604,-4.34347 l -1.46465997,-1.11511 -0.21171,-2.98269 c -0.14008,-1.9735 -0.52801,-3.79111 -1.14653003,-5.37199 -1.49469,-3.82029 -1.2288,-4.74953 1.03946003,-3.63275 0.56339,0.27738 2.22103997,1.04679 3.68367997,1.70978 2.02248,0.91677 3.0574,1.66049 4.32152,3.10558 1.66587,1.90434 2.1164504,3.14697 1.14108,3.14697 -0.76011,0 -5.04153,-1.65785 -6.75583,-2.61599 l -1.47522997,-0.82452 -0.14578,0.99329 c -0.0802,0.5463 -0.0556,0.97017 0.0546,0.94192 0.11018,-0.0283 1.39095997,0.52805 2.84616997,1.23621 1.45521,0.70816 4.15396,1.67635 5.99722,2.15152 6.6145004,1.70516 24.5733404,3.7721 37.7472204,4.34446 3.20146,0.13909 5.42396,0.35443 4.93889,0.47854 -0.81061,0.20739 -0.82488,0.24342 -0.17639,0.44549 0.91208,0.28419 3.02977,0.34739 7.40834,0.22107 l 3.52777,-0.10177 -3.70416,-0.21466 c -3.43234,-0.19892 -3.25112,-0.22 2.46944,-0.28723 8.76024,-0.10296 24.72064,-0.72753 27.99326,-1.09543 2.86315,-0.32188 3.85331,-0.77855 3.16988,-1.46198 -0.26478,-0.26478 -2.69923,-0.26627 -8.27263,-0.005 -11.57263,0.54236 -22.01061,0.70645 -22.57425,0.35487 -0.37184,-0.23194 -0.39905,-0.45744 -0.11097,-0.91956 0.77185,-1.23816 3.64782,-3.3566 4.96509,-3.65727 2.35484,-0.53752 11.2059,-1.10139 18.22519,-1.16107 7.89143,-0.0671 8.11347,-1.7e-4 10.67061,3.21642 3.81931,4.80424 4.0231,6.03561 1.44158,8.71051 -1.65799,1.71798 -1.67766,1.72265 -9.75498,2.31457 -6.82714,0.50031 -26.12222,0.6997 -31.92639,0.32991 z m 23.90069,-0.59665 c -0.63059,-0.0782 -1.66246,-0.0782 -2.29305,0 -0.63059,0.0783 -0.11465,0.14228 1.14653,0.14228 1.26118,0 1.77712,-0.064 1.14652,-0.14228 z m -18.25624,-0.95718 c -0.58209,-0.47086 -2.09021,-1.43495 -3.35139,-2.14244 l -2.29306,-1.28634 -7.58472,-0.49789 c -10.79208,-0.70843 -19.78489,-1.50286 -26.10556,-2.30619 -9.62545,-1.22335 -8.81782,-1.2261 -10.31875,0.035 -1.72415,1.4487 -1.6829,1.9715 0.17639,2.23559 0.82462,0.11713 3.08681,0.4521 5.02709,0.74438 6.46485,0.97387 22.47836,2.63558 30.69166,3.18485 10.3848,0.6945 11.31653,0.75276 13.22917,0.82726 l 1.5875,0.0618 -1.05833,-0.8561 z m 24.96387,0.61127 c -0.43389,-0.0837 -1.22764,-0.0859 -1.76389,-0.005 -0.53624,0.0811 -0.18124,0.1496 0.7889,0.15225 0.97014,0.002 1.40889,-0.0637 0.97499,-0.14743 z m -1.38082,-0.47986 c 8.89412,-0.55187 10.00703,-0.77088 11.49901,-2.26286 1.20679,-1.20679 1.21791,-1.24228 0.38896,-1.24228 -0.46933,0 -1.19662,0.3225 -1.61619,0.71667 -1.08145,1.01597 -4.47199,1.35253 -16.40039,1.62801 -11.13641,0.25719 -11.56543,0.20189 -14.23204,-1.83421 -1.51556,-1.15722 -1.73209,-1.21603 -4.47751,-1.21603 h -2.88492 l 3.48112,2.28743 3.48113,2.28742 7.35528,0.006 c 4.0454,0.003 10.0779,-0.1633 13.40555,-0.36978 z m 6.13847,0.13223 c -0.33955,-0.0887 -0.89517,-0.0887 -1.23472,0 -0.33955,0.0887 -0.0617,0.16134 0.61736,0.16134 0.6791,0 0.95691,-0.0726 0.61736,-0.16134 z m -17.34645,-2.13962 c -0.10897,-0.10896 -0.0367,-0.39262 0.1606,-0.63035 0.25253,-0.30427 0.20472,-0.49132 -0.16148,-0.63185 -0.35069,-0.13457 -0.45628,-0.033 -0.32404,0.31158 0.10789,0.28116 0.0374,0.5112 -0.15661,0.5112 -0.5286,0 -0.85626,-1.12423 -0.44696,-1.53353 0.58413,-0.58413 2.10544,0.4202 1.93975,1.28057 -0.13642,0.70836 -0.0484,0.71418 7.34891,0.48555 9.24042,-0.2856 11.74102,-0.61975 12.826,-1.71389 0.76881,-0.7753 0.7779,-0.84644 0.20241,-1.58418 -0.58357,-0.7481 -0.66364,-0.75631 -2.54282,-0.26049 -1.09994,0.29021 -5.22523,0.66669 -9.525,0.86925 -4.1716,0.19653 -9.96597,0.4725 -12.87639,0.61328 l -5.29167,0.25594 1.39651,0.86801 c 0.76808,0.4774 2.03808,0.95365 2.82222,1.05833 2.04091,0.27245 4.86174,0.33375 4.62857,0.10058 z m 24.48888,-2.64428 c -0.002,-0.72541 -1.199,-2.42909 -3.28369,-4.67431 l -1.96533,-2.11666 0.0675,1.23472 c 0.0371,0.6791 0.30566,1.5259 0.5967,1.88179 0.29104,0.35589 0.82213,0.99089 1.18019,1.41111 0.35807,0.42022 0.87808,1.20061 1.15559,1.73418 0.52362,1.00678 2.25166,1.41336 2.24901,0.52917 z m -86.08187,-2.70204 c 0.1,-0.0794 -0.0944,-0.0453 -0.43196,0.0757 -0.44365,0.15913 -0.67014,-0.004 -0.81718,-0.59032 -0.16589,-0.66097 -0.71441,-0.95812 -2.9737304,-1.61096 -1.52368,-0.44028 -3.14032,-0.9913 -3.59254,-1.2245 -1.78407,-0.91999 -2.10478,-0.95826 -1.70054,-0.20294 0.3832,0.71601 3.16709,2.33938 3.17677,1.85247 0.003,-0.14947 0.15929,-0.0336 0.34738,0.25741 0.30397,0.47037 0.34376,0.47037 0.3581,0 0.0127,-0.41723 0.0922,-0.39857 0.37571,0.0882 0.21739,0.37325 0.7827,0.61737 1.42964,0.61737 h 1.07006 l -0.16894,1.79964 -0.16894,1.79963 1.4571804,-1.35866 c 0.80145,-0.74727 1.539,-1.42365 1.63899,-1.50307 z m -2.11125,1.20273 c 0.4557,-0.48507 0.90792,-0.88194 1.00493,-0.88194 0.097,0 -0.19645,0.39687 -0.65215,0.88194 -0.4557004,0.48507 -0.9079204,0.88195 -1.0049304,0.88195 -0.097,0 0.19645,-0.39688 0.6521504,-0.88195 z m 41.01713,1.00332 c -0.23884,-0.0966 -0.71509,-0.10251 -1.05833,-0.0131 -0.34325,0.0894 -0.14783,0.1685 0.43425,0.17569 0.58209,0.007 0.86292,-0.066 0.62408,-0.16262 z M 8.2169316,167.18134 c 0.0725,-0.37373 -0.32981,-0.69271 -1.23472,-0.97893 -0.73825,-0.2335 -2.19176,-0.8941 -3.23002,-1.468 -1.93406,-1.06905 -2.59565,-1.07245 -1.96315,-0.0101 0.41603,0.69877 5.38685,3.32217 5.94363,3.13682 0.20719,-0.069 0.42511,-0.37487 0.48426,-0.67978 z m 68.6841104,-2.38082 c 13.43997,-0.46082 15.49096,-0.63973 14.94031,-1.30321 -0.23607,-0.28446 -1.07484,-0.84829 -1.86393,-1.25297 -1.29031,-0.66173 -2.02057,-0.73335 -7.25555,-0.71159 -5.91248,0.0246 -12.08227,0.53084 -14.64028,1.2013 -0.77611,0.20343 -2.03769,0.82986 -2.80352,1.39209 l -1.39242,1.02222 1.56881,-0.005 c 0.86284,-0.002 6.0138,-0.15698 11.44658,-0.34326 z m -63.41916,-0.21808 c -0.11722,-0.11722 -0.42149,-0.12975 -0.67615,-0.0278 -0.28143,0.11261 -0.19783,0.1962 0.21313,0.21313 0.37189,0.0153 0.58025,-0.0681 0.46302,-0.18529 z m 78.23582,-2.96186 c 0.11992,-0.19403 0.0593,-0.35278 -0.13475,-0.35278 -0.19403,0 -0.45089,0.15875 -0.5708,0.35278 -0.11992,0.19403 -0.0593,0.35278 0.13475,0.35278 0.19403,0 0.45089,-0.15875 0.5708,-0.35278 z m -1.41111,-0.35278 c 0.12669,-0.20498 -0.19712,-0.34239 -0.77293,-0.32798 -0.87165,0.0218 -0.90601,0.0613 -0.2854,0.32798 0.38805,0.16676 0.73587,0.31435 0.77293,0.32798 0.0371,0.0136 0.16549,-0.13395 0.2854,-0.32798 z M 7.0288516,158.41589 c -0.92057,-0.96666 -7.47608997,-4.40768 -7.79311997,-4.09065 -0.0687,0.0687 0.0864,0.73557 0.34475,1.48184 0.26929,0.77781 0.57425,1.18776 0.71462,0.96063 0.22463,-0.36346 0.87544997,-0.0945 5.87399997,2.4277 0.29104,0.14686 0.83667,0.27635 1.21252,0.28775 0.59506,0.0181 0.54947,-0.11985 -0.35277,-1.06727 z m 46.8534404,9.66429 c 0.33955,-0.0887 0.89517,-0.0887 1.23472,0 0.33955,0.0887 0.0617,0.16133 -0.61736,0.16133 -0.6791,0 -0.95691,-0.0726 -0.61736,-0.16133 z m -19.66736,-2.79374 c -5.9,-0.50222 -11.38443,-1.22365 -14.58841,-1.91898 -1.41549,-0.30718 -2.2106,-0.74217 -3.175,-1.73697 -2.51135,-2.59051 -6.36361,-10.32026 -7.1981204,-14.44337 l -0.44635,-2.20531 -3.33552,-1.73852 c -1.83453,-0.95619 -3.48189,-2.00008 -3.6608,-2.31976 -0.333,-0.59504 0.20745,-8.18533 0.66769,-9.37726 0.3289,-0.85176 1.01702,-0.77275 1.53611,0.17639 0.23876,0.43656 0.81965,1.0778 1.29087,1.42497 l 0.85677,0.63122 -0.34932,-0.91877 c -0.75988,-1.99865 -0.0752,-5.10617 1.125,-5.10617 0.23802,0 0.21483,0.19416 -0.0632,0.52917 -0.2751,0.33148 -0.29953,0.52917 -0.0654,0.52917 0.22846,0 0.29771,0.46879 0.17812,1.20576 -0.19169,1.18126 -0.16436,1.21275 1.3451,1.54972 1.02965,0.22986 1.2482,0.35828 0.65882,0.38714 -1.69501,0.083 -1.94459,0.49219 -1.45581,2.38678 0.24157,0.9364 0.42644,2.15057 0.41081,2.69816 -0.0204,0.71254 0.0973,0.9179 0.41389,0.72226 0.24327,-0.15035 0.7626,-0.3453 1.15407,-0.43321 1.3696304,-0.30758 24.8770404,-0.23773 24.8770404,0.0739 0,0.17542 1.35324,0.20922 3.0868,0.0771 2.27614,-0.17348 2.94783,-0.13371 2.55764,0.15141 -0.39262,0.28689 0.19908,0.33651 2.29306,0.19226 1.9805,-0.13644 2.61179,-0.0906 2.11666,0.15376 -0.51336,0.25333 -0.17702,0.29583 1.23472,0.15602 1.71164,-0.16952 10.1441,0.6087 12.20766,1.12663 0.42248,0.10603 0.86346,0.0386 0.97994,-0.14989 0.26914,-0.43549 -1.94776,-0.86723 -2.79116,-0.54359 -0.38489,0.1477 -0.54904,0.10532 -0.41735,-0.10775 0.39875,-0.6452 -12.37293,-2.29048 -22.83462,-2.94161 -6.04673,-0.37634 -8.04929,-0.71028 -4.22479,-0.7045 11.48488,0.0174 32.39882,2.83914 34.64597,4.67456 0.7211,0.58897 -0.0976,1.11511 -1.60096,1.02891 l -1.32441,-0.076 -0.0357,1.77077 c -0.0256,1.26979 0.0992,1.77078 0.44097,1.77078 0.26217,0 0.47668,-0.28983 0.47668,-0.64406 0,-0.35423 0.38186,-1.00281 0.84859,-1.44128 0.84008,-0.78921 0.85089,-0.79 1.07661,-0.0788 0.33621,1.05933 -1.56851,7.76075 -3.07171,10.80724 -1.6294,3.30224 -8.59408,11.85793 -10.31926,12.67658 -1.44954,0.68785 -7.33246,0.68221 -15.52173,-0.0149 z m 13.90532,-0.714 c 0.0808,-0.0713 -1.90353,-0.13044 -4.40972,-0.13141 -3.86579,-0.001 -8.47493,-0.30886 -18.31505,-1.22132 -1.70264,-0.15788 -1.71489,-0.1527 -0.35277,0.1491 1.28149,0.28394 12.00005,1.27188 16.75694,1.5445 1.97902,0.11342 6.05472,-0.10639 6.3206,-0.34087 z m 5.30446,-4.38511 c 1.52514,-1.89606 3.45455,-4.45104 4.28759,-5.67775 1.52825,-2.25045 3.70804,-7.25257 3.32667,-7.63394 -0.38115,-0.38116 -1.13603,0.79465 -1.95376,3.04321 -0.44664,1.22815 -1.44148,3.21252 -2.21075,4.40972 -1.98264,3.08555 -5.18351,6.98923 -5.54679,6.7647 -0.16888,-0.10436 -0.42192,-0.004 -0.56232,0.22328 -0.17194,0.27821 -0.0935,0.32206 0.24021,0.13432 0.27251,-0.15329 0.0557,0.17937 -0.4818,0.73925 -0.94362,0.9829 -1.11098,1.02208 -4.85952,1.1376 -6.34807,0.19563 -25.49926,-1.57673 -27.94167,-2.58588 -0.34486,-0.14249 -0.61736,-0.10038 -0.61736,0.0954 0,0.19276 0.43656,0.43953 0.97013,0.54837 0.53358,0.10884 2.08139,0.42876 3.43959,0.71093 5.05682,1.05056 19.63588,2.12006 27.2729,2.0007 0.25399,-0.004 0.3535,0.168 0.22115,0.38215 -0.13235,0.21416 0.18312,0.11171 0.70106,-0.22766 0.51794,-0.33937 2.18955,-2.16835 3.71467,-4.0644 z m -30.7706,2.63122 c -0.11723,-0.11722 -0.4215,-0.12975 -0.67616,-0.0278 -0.28142,0.11261 -0.19783,0.19621 0.21314,0.21313 0.37188,0.0153 0.58024,-0.0681 0.46302,-0.18528 z m 24.34901,-0.0462 c -0.92163,-0.0727 -2.42976,-0.0727 -3.35139,0 -0.92163,0.0727 -0.16757,0.13213 1.6757,0.13213 1.84326,0 2.59732,-0.0594 1.67569,-0.13213 z m -8.28543,-0.3418 c -0.43389,-0.0837 -1.22764,-0.0859 -1.76388,-0.005 -0.53625,0.0811 -0.18124,0.1496 0.7889,0.15225 0.97013,0.002 1.40888,-0.0637 0.97498,-0.14743 z m -5.12012,-0.34763 c -0.33955,-0.0887 -0.89518,-0.0887 -1.23473,0 -0.33954,0.0887 -0.0617,0.16134 0.61737,0.16134 0.67909,0 0.9569,-0.0726 0.61736,-0.16134 z m 15.36902,-0.16157 c 0.42381,-0.2226 1.1439,-0.77273 1.6002,-1.2225 l 0.82964,-0.81775 -1.09423,0.13848 c -0.60182,0.0762 -1.09422,-0.009 -1.09422,-0.18861 0,-0.1799 0.64437,-0.32709 1.43193,-0.32709 0.86479,0 1.34558,0.13973 1.21391,0.35278 -0.3323,0.53767 0.0339,0.42042 0.52132,-0.16694 0.37674,-0.45394 -0.008,-0.49407 -3.04361,-0.31709 -4.79386,0.27953 -15.97147,0.12269 -19.17355,-0.26904 -1.45521,-0.17803 -4.07458,-0.47192 -5.82083,-0.65309 -3.30201,-0.34257 -6.74754,-0.97457 -7.48053,-1.3721 -0.24796,-0.13449 -0.30674,-0.42178 -0.14112,-0.68977 0.23162,-0.37476 0.66685,-0.36284 2.36525,0.0648 1.87591,0.4723 6.06832,0.91016 19.01473,1.9859 2.32834,0.19347 6.46567,0.3534 9.19408,0.3554 l 4.96074,0.004 0.7865,-1.0638 c 0.64662,-0.87461 0.6947,-1.09903 0.2703,-1.26189 -0.28391,-0.10895 -0.83568,-0.0271 -1.22614,0.18186 -0.39046,0.20897 -0.99818,0.37511 -1.35048,0.36921 -0.61593,-0.0103 -0.61575,-0.0251 0.005,-0.38604 0.35502,-0.20643 1.38689,-0.50876 2.29305,-0.67186 1.3228,-0.23809 1.12602,-0.26208 -0.99825,-0.12171 -4.91875,0.32502 -16.03061,0.41975 -19.40278,0.16541 -2.23973,-0.16892 -3.43736,-0.12862 -3.61057,0.1215 -0.17966,0.25943 -0.26084,0.25428 -0.26459,-0.0168 -0.006,-0.40136 -2.67543,-0.89448 -8.33698,-1.53983 -3.16162,-0.3604 -6.70221,-1.31826 -5.25037,-1.42043 l 0.70555,-0.0497 -0.70555,-0.30319 c -0.70461,-0.30277 -0.7046,-0.30322 0.002,-0.32798 0.38933,-0.0136 1.26246,0.13434 1.94027,0.32884 3.91251,1.1227 27.8886,2.90972 34.32951,2.55869 3.12441,-0.17027 3.51622,-0.26882 3.99915,-1.00587 0.74278,-1.13362 0.36733,-1.53475 -1.12209,-1.19883 -0.68621,0.15476 -3.50487,0.1431 -6.26369,-0.0259 -2.75882,-0.16902 -8.35533,-0.3825 -12.4367,-0.47439 -4.12119,-0.0928 -7.87659,-0.34043 -8.44606,-0.55694 -0.56398,-0.21442 -2.78093,-0.54402 -4.92657,-0.73243 -4.55664,-0.40013 -9.67936,-1.4408 -8.31087,-1.68834 l 0.88194,-0.15953 -0.88194,-0.2931 c -1.08027,-0.35902 0.83008,-0.18352 4.05694,0.37269 4.41453,0.76093 20.12871,1.85354 29.35998,2.04141 l 9.60442,0.19546 0.36155,-0.95095 c 0.19885,-0.52302 0.36155,-0.98304 0.36155,-1.02226 0,-0.0392 -1.46844,0.0425 -3.2632,0.18153 -3.6097,0.27967 -13.56652,-0.01 -14.33579,-0.41672 -0.26909,-0.14236 0.28653,-0.20496 1.23473,-0.13912 4.74752,0.32968 9.36391,0.39092 8.92294,0.11839 -0.30053,-0.18574 0.73449,-0.34226 2.68222,-0.40562 1.74438,-0.0567 -1.67028,-0.13289 -7.58812,-0.16922 -5.91785,-0.0363 -12.34722,-0.22656 -14.2875,-0.42274 -12.6195,-1.27597 -14.89854,-1.47231 -15.59974,-1.34396 -0.43069,0.0788 -0.69914,0.008 -0.59654,-0.15848 0.10259,-0.166 -0.28972,-0.30182 -0.8718,-0.30182 -0.58209,0 -1.15645,-0.15875 -1.27637,-0.35278 -0.11991,-0.19402 -0.0102,-0.3552 0.24377,-0.35817 0.33955,-0.004 0.32171,-0.10491 -0.0674,-0.38128 -0.3894,-0.27659 -0.10987,-0.31325 1.05834,-0.13879 8.11451,1.21183 28.79364,2.61819 38.72609,2.63371 l 5.38859,0.008 0.34405,-0.90491 c 0.18922,-0.4977 0.3442,-0.93426 0.3444,-0.97014 1.9e-4,-0.0359 -2.81762,-0.0209 -6.26181,0.0331 -3.44419,0.0541 -7.77028,-0.0459 -9.61355,-0.22228 -2.65538,-0.25404 -1.92274,-0.2827 3.52778,-0.13799 3.78354,0.10045 6.78919,0.084 6.67923,-0.0365 -0.10997,-0.1205 -4.15809,-0.31524 -8.99584,-0.43275 -9.66901,-0.23487 -14.81992,-0.55834 -22.02506,-1.38317 -2.61937,-0.29986 -5.44537,-0.46466 -6.27999,-0.36623 -0.94074,0.11095 -1.43658,0.048 -1.30459,-0.16552 0.11822,-0.19128 -0.0183,-0.25575 -0.30703,-0.14496 -0.71429,0.27409 -1.98616,-0.46131 -1.98616,-1.14841 0,-0.46339 0.26573,-0.52256 1.4993,-0.33386 9.10959,1.39348 45.42014,3.32679 45.42014,2.41834 0,-0.20923 0.0964,-0.63152 0.21413,-0.93843 0.18991,-0.4949 -0.44194,-0.55802 -5.58564,-0.55802 -4.92018,0 -5.79979,-0.0803 -5.79979,-0.52917 0,-0.60209 0.43869,-0.70333 0.76436,-0.17639 0.24853,0.40213 4.37775,0.39355 8.29027,-0.0172 2.04208,-0.21441 1.39806,-0.25519 -2.82222,-0.17874 -3.31088,0.06 -4.63302,0.002 -3.35139,-0.14597 l 2.11667,-0.24501 -2.11667,-0.0198 c -1.16416,-0.0109 -3.62479,0.0955 -5.46805,0.23641 l -3.35139,0.25623 2.55764,0.0571 c 1.60033,0.0357 2.55764,0.20324 2.55764,0.44759 0,0.21478 -0.25111,0.29416 -0.55802,0.17639 -0.30691,-0.11778 -1.77535,-0.21656 -3.2632,-0.21954 -1.87684,-0.004 -2.54314,-0.11012 -2.17601,-0.34738 0.29105,-0.18809 0.4498,-0.3484 0.35278,-0.35626 -0.76827,-0.0622 -5.59098,-0.32816 -9.525,-0.52519 -2.61937,-0.13119 -5.31953,-0.37921 -6.00035,-0.55117 -0.68081,-0.17196 -3.77644,-0.39245 -6.87916,-0.48998 -3.10273,-0.0975 -6.11757,-0.3282 -6.69965,-0.51261 -0.78635,-0.24913 -0.24237,-0.30114 2.11666,-0.20239 l 3.175,0.13291 -2.78593,-0.32306 c -2.98164,-0.34575 -4.11631,-0.62881 -2.68212,-0.6691 0.48507,-0.0136 8.34319,0.44838 17.4625,1.02667 17.63292,1.11818 29.0435,1.63812 28.74746,1.30992 -1.28922,-1.42927 -38.58425,-4.03572 -45.50441,-3.18018 l -2.29305,0.2835 -0.10528,2.21464 c -0.17429,3.6662 0.79085,8.13638 2.58619,11.97831 2.26988,4.85739 3.51877,6.68643 4.86361,7.12288 4.69791,1.52465 29.13158,3.44883 31.04325,2.44469 z m -3.54426,-8.30638 c 0.34325,-0.0894 0.8195,-0.0836 1.05834,0.0131 0.23884,0.0966 -0.042,0.16982 -0.62408,0.16263 -0.58208,-0.007 -0.7775,-0.0863 -0.43426,-0.1757 z m -10.23055,-4.23334 c 0.34324,-0.0894 0.81949,-0.0836 1.05833,0.0131 0.23884,0.0966 -0.042,0.16982 -0.62407,0.16263 -0.58208,-0.007 -0.7775,-0.0863 -0.43426,-0.1757 z m -13.05464,-1.06701 c 0.53624,-0.0811 1.32999,-0.0789 1.76389,0.005 0.43389,0.0837 -0.005,0.15008 -0.97499,0.14744 -0.97014,-0.003 -1.32514,-0.0712 -0.7889,-0.15225 z m -3.35213,-0.34913 c 0.43883,-0.0844 1.07383,-0.0812 1.41111,0.007 0.33729,0.0883 -0.0217,0.15734 -0.79786,0.15343 -0.77611,-0.004 -1.05207,-0.0762 -0.61325,-0.16055 z m -2.80428,-0.34426 c 0.25466,-0.10191 0.55893,-0.0894 0.67615,0.0278 0.11723,0.11723 -0.0911,0.20061 -0.46302,0.18529 -0.41096,-0.0169 -0.49456,-0.10052 -0.21313,-0.21313 z m 6.86197,-2.83438 c 0.53624,-0.0811 1.32999,-0.0789 1.76388,0.005 0.4339,0.0837 -0.005,0.15008 -0.97499,0.14744 -0.97013,-0.003 -1.32514,-0.0712 -0.78889,-0.15225 z m -6.09027,-0.46363 c -0.73507,-0.1614 -0.0927,-0.19476 1.5875,-0.0824 1.55222,0.10378 2.88837,0.24668 2.96921,0.31755 0.25991,0.22788 -3.27996,0.0452 -4.55671,-0.23512 z m 7.85602,-3.05548 c 0.34324,-0.0894 0.81949,-0.0836 1.05833,0.0131 0.23884,0.0966 -0.042,0.16982 -0.62407,0.16263 -0.58209,-0.007 -0.7775,-0.0863 -0.43426,-0.1757 z m -4.41644,-0.3635 c 0.63059,-0.0782 1.66247,-0.0782 2.29306,0 0.63059,0.0782 0.11465,0.14228 -1.14653,0.14228 -1.26118,0 -1.77712,-0.064 -1.14653,-0.14228 z m -4.40972,-0.34076 c 0.33955,-0.0887 0.89517,-0.0887 1.23472,0 0.33955,0.0887 0.0617,0.16134 -0.61736,0.16134 -0.6791,0 -0.95691,-0.0726 -0.61736,-0.16134 z m 13.93472,21.16667 c -0.33955,-0.0887 -0.89517,-0.0887 -1.23472,0 -0.33955,0.0887 -0.0617,0.16133 0.61736,0.16133 0.6791,0 0.95691,-0.0726 0.61736,-0.16133 z m -3.53513,-0.32274 c -0.11722,-0.11722 -0.42149,-0.12975 -0.67615,-0.0278 -0.28143,0.11261 -0.19783,0.1962 0.21313,0.21313 0.37189,0.0153 0.58025,-0.0681 0.46302,-0.18529 z m -2.82222,-0.35278 c -0.11722,-0.11722 -0.42149,-0.12975 -0.67616,-0.0278 -0.28142,0.11261 -0.19783,0.19621 0.21314,0.21313 0.37189,0.0153 0.58025,-0.0681 0.46302,-0.18528 z m -2.46944,-0.35277 c -0.11723,-0.11723 -0.4215,-0.12976 -0.67616,-0.0278 -0.28142,0.11261 -0.19783,0.19621 0.21314,0.21314 0.37188,0.0153 0.58024,-0.0681 0.46302,-0.18529 z m -4.27639,-0.6586 c -0.0419,-0.28543 -0.17468,-0.61747 -0.29509,-0.73788 -0.16958,-0.16958 -0.13655,0.54627 0.0539,1.16864 0.1042,0.34047 0.3024,-0.0136 0.24117,-0.43076 z m 27.22061,-0.79145 c -0.5301,-0.0805 -1.4826,-0.0821 -2.11667,-0.004 -0.63406,0.0785 -0.20034,0.14438 0.96382,0.14636 1.16417,0.002 1.68295,-0.0623 1.15285,-0.14276 z m -4.94109,-0.34309 c -0.33729,-0.0883 -0.97229,-0.0915 -1.41111,-0.007 -0.43883,0.0844 -0.16287,0.15663 0.61324,0.16054 0.77611,0.004 1.13515,-0.0651 0.79787,-0.15342 z m -7.06702,-0.32353 c -0.11723,-0.11723 -0.4215,-0.12976 -0.67616,-0.0278 -0.28142,0.11262 -0.19783,0.19621 0.21314,0.21314 0.37188,0.0153 0.58024,-0.0681 0.46302,-0.18529 z m -5.81349,-0.74139 c -0.43656,-0.0841 -1.15093,-0.0841 -1.5875,0 -0.43656,0.0841 -0.0794,0.15289 0.79375,0.15289 0.87313,0 1.23032,-0.0688 0.79375,-0.15289 z m -3.87384,-0.33521 c -0.23884,-0.0966 -0.71509,-0.10251 -1.05833,-0.0131 -0.34324,0.0894 -0.14783,0.16851 0.43426,0.1757 0.58208,0.007 0.86291,-0.066 0.62407,-0.16263 z m 20.63711,-1.78456 c -0.5301,-0.0805 -1.4826,-0.0821 -2.11667,-0.004 -0.63407,0.0785 -0.20035,0.14437 0.96382,0.14635 1.16417,0.002 1.68295,-0.0623 1.15285,-0.14276 z m -18.87322,-1.39044 c -0.23884,-0.0966 -0.71509,-0.10251 -1.05833,-0.0131 -0.34324,0.0894 -0.14783,0.16851 0.43426,0.1757 0.58208,0.007 0.86291,-0.066 0.62407,-0.16263 z m -3.36545,-0.33451 c -0.11723,-0.11723 -0.4215,-0.12976 -0.67616,-0.0278 -0.28142,0.11262 -0.19783,0.19621 0.21314,0.21314 0.37189,0.0153 0.58024,-0.0681 0.46302,-0.18529 z m 31.06112,-1.45441 c -0.72248,-0.0758 -1.99248,-0.0769 -2.82223,-0.002 -0.82974,0.0745 -0.23863,0.13655 1.3136,0.13783 1.55222,0.001 2.2311,-0.0597 1.50863,-0.13549 z m -9.17744,-0.33873 c -0.33728,-0.0883 -0.97228,-0.0915 -1.41111,-0.007 -0.43882,0.0844 -0.16286,0.15663 0.61325,0.16055 0.77611,0.004 1.13515,-0.0651 0.79786,-0.15343 z m -19.2305,-1.40236 c -0.24253,-0.0979 -0.63941,-0.0979 -0.88194,0 -0.24254,0.0979 -0.0441,0.17794 0.44097,0.17794 0.48507,0 0.68351,-0.0801 0.44097,-0.17794 z m -3.35874,-0.33228 c -0.11722,-0.11722 -0.42149,-0.12976 -0.67615,-0.0278 -0.28143,0.11261 -0.19783,0.1962 0.21313,0.21313 0.37189,0.0153 0.58025,-0.0681 0.46302,-0.18529 z m 25.76013,-1.80343 c -0.53358,-0.0808 -1.4067,-0.0808 -1.94028,0 -0.53357,0.0808 -0.097,0.14697 0.97014,0.14697 1.06715,0 1.50372,-0.0661 0.97014,-0.14697 z m -34.8368,-0.80565 c 0,-0.19403 -0.07,-0.35278 -0.15557,-0.35278 -0.0856,0 -0.25368,0.15875 -0.3736,0.35278 -0.11992,0.19402 -0.0499,0.35277 0.15557,0.35277 0.20548,0 0.3736,-0.15875 0.3736,-0.35277 z m 17.19056,-0.21314 c -0.11722,-0.11723 -0.42149,-0.12976 -0.67615,-0.0278 -0.28143,0.11262 -0.19783,0.19621 0.21313,0.21314 0.37189,0.0153 0.58025,-0.0681 0.46302,-0.18529 z m -3.34404,-0.37328 c -0.24253,-0.0979 -0.63941,-0.0979 -0.88194,0 -0.24254,0.0979 -0.0441,0.17794 0.44097,0.17794 0.48507,0 0.68351,-0.0801 0.44097,-0.17794 z m -3.87384,-0.35007 c -0.23884,-0.0966 -0.71509,-0.10251 -1.05833,-0.0131 -0.34324,0.0894 -0.14783,0.16851 0.43426,0.1757 0.58208,0.007 0.86291,-0.066 0.62407,-0.16263 z m -10.32546,-0.86857 c 0,-0.19403 -0.15875,-0.25467 -0.35278,-0.13475 -0.1940304,0.11991 -0.3527804,0.37677 -0.3527804,0.5708 0,0.19403 0.15875,0.25467 0.3527804,0.13475 0.19403,-0.11991 0.35278,-0.37677 0.35278,-0.5708 z m 6.60723,0.53405 c -0.11722,-0.11722 -0.42149,-0.12975 -0.67616,-0.0278 -0.28142,0.11261 -0.19782,0.19621 0.21314,0.21313 0.37189,0.0153 0.58025,-0.0681 0.46302,-0.18528 z m -2.11666,-0.35277 c -0.11723,-0.11723 -0.4215,-0.12976 -0.67616,-0.0278 -0.28142,0.11262 -0.19783,0.19621 0.21313,0.21314 0.37189,0.0153 0.58025,-0.0681 0.46303,-0.18529 z m 39.60665,-0.4716 c 0,-0.59141 -0.62567,-0.73785 -0.83391,-0.19519 -0.12287,0.32021 10e-4,0.52715 0.31581,0.52715 0.28496,0 0.5181,-0.14938 0.5181,-0.33196 z m 3.52778,-0.5294 c 0.29104,-0.0633 -0.30427,-0.13355 -1.32292,-0.15605 -1.01865,-0.0225 -1.85208,0.0859 -1.85208,0.24101 0,0.25489 1.83919,0.20567 3.175,-0.085 z m -8.20209,-0.10119 c -0.7276,-0.0761 -1.91823,-0.0761 -2.64583,0 -0.7276,0.0761 -0.13229,0.13838 1.32292,0.13838 1.45521,0 2.05052,-0.0623 1.32291,-0.13838 z m -7.40422,-0.33817 c -0.33728,-0.0883 -0.97228,-0.0915 -1.41111,-0.007 -0.43882,0.0844 -0.16286,0.15663 0.61325,0.16054 0.77611,0.004 1.13515,-0.0651 0.79786,-0.15342 z m -13.06424,-0.67631 c -0.11722,-0.11722 -0.42149,-0.12976 -0.67615,-0.0278 -0.28143,0.11261 -0.19783,0.1962 0.21313,0.21313 0.37189,0.0153 0.58025,-0.0681 0.46302,-0.18529 z m -3.33732,-0.37104 c -0.23884,-0.0966 -0.71509,-0.10251 -1.05833,-0.0131 -0.34325,0.0894 -0.14783,0.16851 0.43425,0.1757 0.58209,0.007 0.86292,-0.066 0.62408,-0.16263 z m -4.41644,-0.36456 c -0.33955,-0.0887 -0.89517,-0.0887 -1.23472,0 -0.33955,0.0887 -0.0617,0.16134 0.61736,0.16134 0.6791,0 0.95691,-0.0726 0.61736,-0.16134 z m -4.23333,-0.35278 c -0.33955,-0.0887 -0.89517,-0.0887 -1.23472,0 -0.33955,0.0887 -0.0617,0.16134 0.61736,0.16134 0.6791,0 0.95691,-0.0726 0.61736,-0.16134 z m 45.58572,-0.99154 c 0,-0.19403 -0.15389,-0.11465 -0.34197,0.17639 -0.18809,0.29104 -0.34197,0.68792 -0.34197,0.88195 0,0.19402 0.15388,0.11465 0.34197,-0.17639 0.18808,-0.29105 0.34197,-0.68792 0.34197,-0.88195 z m -48.41529,0.66881 c -0.11723,-0.11723 -0.4215,-0.12976 -0.67616,-0.0278 -0.28142,0.11262 -0.19783,0.19621 0.21314,0.21314 0.37188,0.0153 0.58024,-0.0681 0.46302,-0.18529 z m -7.5773704,-1.08312 c -1.12919,-0.78768 -0.9883,-1.31692 0.15172,-0.56995 0.91589,0.60011 0.93378,0.59859 0.57163,-0.0485 -0.20562,-0.36742 -0.90476,-0.84097 -1.55364,-1.05234 -0.64889,-0.21137 -1.37429,-0.77553 -1.61201,-1.25369 -0.35281,-0.70968 -0.47211,-0.76542 -0.64939,-0.30345 -0.13543,0.35293 0.15319,0.94572 0.76682,1.57494 1.0021,1.02758 2.62298,2.25218 2.94223,2.2229 0.097,-0.009 -0.1808,-0.26534 -0.61736,-0.56987 z m 2.26945,-0.181 c -0.11261,-0.28142 -0.1962,-0.19783 -0.21313,0.21314 -0.0153,0.37188 0.0681,0.58024 0.18528,0.46302 0.11723,-0.11723 0.12976,-0.4215 0.0279,-0.67616 z m -4.80351,-0.24257 c -0.36567,-0.68325 -1.78747,-1.26856 -1.78747,-0.73584 0,0.23103 1.25604,1.06798 2.04088,1.35991 0.0553,0.0206 -0.0587,-0.26025 -0.25341,-0.62407 z m 40.2861304,0.0604 c -0.4339,-0.0837 -1.22765,-0.0859 -1.76389,-0.005 -0.53625,0.0811 -0.18124,0.1496 0.7889,0.15225 0.97014,0.002 1.40888,-0.0637 0.97499,-0.14744 z m -22.22985,-1.41174 c -0.43657,-0.0841 -1.15094,-0.0841 -1.5875,0 -0.43657,0.0841 -0.0794,0.15288 0.79375,0.15288 0.87312,0 1.23031,-0.0688 0.79375,-0.15288 z m 37.83541,-0.45659 c 0.11992,-0.19403 -0.0201,-0.35278 -0.31114,-0.35278 -0.29104,0 -0.62727,0.15875 -0.74719,0.35278 -0.11992,0.19403 0.0201,0.35278 0.31114,0.35278 0.29104,0 0.62728,-0.15875 0.74719,-0.35278 z m 1.49196,0.13964 c -0.11723,-0.11723 -0.4215,-0.12976 -0.67616,-0.0278 -0.28142,0.11262 -0.19783,0.19621 0.21314,0.21314 0.37188,0.0153 0.58024,-0.0681 0.46302,-0.18529 z M 7.5802116,139.23181 c 0,-0.0903 -0.47625,-0.65142 -1.05834,-1.24688 l -1.05833,-1.08266 v 0.87658 c 0,0.48212 0.27781,1.03839 0.61736,1.23615 0.64502,0.37569 1.49931,0.49923 1.49931,0.21681 z m 44.3544504,-0.40169 c -0.11723,-0.11722 -0.4215,-0.12975 -0.67616,-0.0278 -0.28142,0.11261 -0.19783,0.19621 0.21314,0.21313 0.37189,0.0153 0.58025,-0.0681 0.46302,-0.18528 z m -3.34404,-0.37327 c -0.24253,-0.0979 -0.63941,-0.0979 -0.88194,0 -0.24254,0.0979 -0.0441,0.17793 0.44097,0.17793 0.48507,0 0.68351,-0.0801 0.44097,-0.17793 z M 4.5671416,135.43611 c 0.53456,-1.28721 0.52743,-1.32608 -0.34828,-1.89987 -0.4917,-0.32218 -0.94672,-0.52458 -1.01115,-0.44979 -0.0644,0.0748 -0.22534,1.24723 -0.35759,2.60542 l -0.24044,2.46945 0.70587,-0.70556 c 0.38823,-0.38805 0.95145,-1.2969 1.25159,-2.01965 z m 1.48687,1.14107 c 0.60627,0.45844 0.60985,0.44944 0.0607,-0.15262 -0.59363,-0.65089 -1.36117,-0.5042 -1.35136,0.25827 0.003,0.26373 0.12472,0.23159 0.32589,-0.0863 0.27357,-0.43234 0.4148,-0.43516 0.96473,-0.0193 z m 1.78343,-4.80261 c -0.11723,-0.11723 -0.4215,-0.12976 -0.67616,-0.0278 -0.28142,0.11262 -0.19783,0.19621 0.21314,0.21314 0.37189,0.0153 0.58024,-0.0681 0.46302,-0.18529 z M 130.78861,163.56132 c 0.004,-0.77611 0.0762,-1.05208 0.16054,-0.61325 0.0844,0.43882 0.0812,1.07382 -0.007,1.41111 -0.0883,0.33729 -0.15734,-0.0218 -0.15343,-0.79786 z m 4.5677,-0.24695 c -0.64097,-0.64097 -0.51063,-0.98796 0.37042,-0.98608 1.18037,0.002 5.97408,-1.78164 6.82649,-2.54076 0.4076,-0.36297 8.50384,-3.25737 17.99167,-6.43199 9.48782,-3.17461 19.07621,-6.40802 21.30753,-7.18535 2.75126,-0.95845 4.13418,-1.28864 4.29691,-1.02594 0.39068,0.63067 -0.34875,1.61156 -1.75107,2.32289 -2.46293,1.24933 -47.02952,16.27057 -48.27323,16.27057 -0.18996,0 -0.53588,-0.1905 -0.76872,-0.42334 z m 21.34436,-7.18896 c 6.83049,-2.2988 12.35699,-4.24173 12.28109,-4.31762 -0.20898,-0.20898 -25.00021,8.08361 -25.40573,8.49814 -0.23774,0.24303 -0.18022,0.30168 0.17639,0.17987 0.29105,-0.0994 6.11776,-2.06158 12.94825,-4.36039 z m 16.61926,-5.60156 c 1.61304,-0.53355 2.87065,-1.03225 2.79469,-1.1082 -0.17133,-0.17134 -6.28774,1.87823 -6.57625,2.20366 -0.11526,0.13 0.0286,0.15498 0.31961,0.0555 0.29104,-0.0995 1.84892,-0.61741 3.46195,-1.15097 z m 6.52656,-2.29301 c 1.32208,-0.43639 2.34106,-0.85615 2.26441,-0.9328 -0.17124,-0.17124 -5.23086,1.52842 -5.5192,1.85405 -0.11403,0.12878 0.0308,0.1527 0.32183,0.0532 0.29105,-0.0995 1.61088,-0.53802 2.93296,-0.97441 z m 3.76982,-1.42647 c 0.29104,-0.18809 0.37042,-0.34197 0.17639,-0.34197 -0.19403,0 -0.5909,0.15388 -0.88194,0.34197 -0.29105,0.18809 -0.37042,0.34197 -0.17639,0.34197 0.19402,0 0.5909,-0.15388 0.88194,-0.34197 z m -53.00702,12.08264 c -0.19499,-3.19764 -1.30583,-8.73158 -1.58829,-7.91252 -0.10189,0.29545 -0.34053,0.11932 -0.65214,-0.48129 -0.64684,-1.24681 -0.60672,-1.57103 0.0854,-0.69022 0.53836,0.68511 0.54694,0.68 0.29587,-0.17639 -0.44618,-1.52188 -1.82371,-4.02883 -2.5985,-4.72898 -0.40903,-0.36962 -0.74369,-0.5498 -0.74369,-0.4004 0,0.1494 -0.39424,0.0133 -0.87609,-0.3024 -0.48185,-0.31571 -1.47404,-0.7149 -2.20486,-0.88708 -1.02562,-0.24162 -1.12446,-0.32112 -0.43322,-0.34848 0.49255,-0.0195 1.49381,0.26958 2.22502,0.64238 0.75298,0.38388 1.16269,0.47683 0.94484,0.21434 -0.21155,-0.25491 -0.85361,-0.65772 -1.42679,-0.89514 -0.57319,-0.23742 -0.96381,-0.55844 -0.86805,-0.71338 0.0958,-0.15494 -0.0253,-0.36211 -0.26907,-0.46037 -0.3456,-0.13934 -0.34222,-0.18481 0.0153,-0.20652 0.82732,-0.0503 2.39458,0.96025 3.65765,2.35832 2.63448,2.91605 4.41037,8.29563 4.77315,14.45896 0.11707,1.98879 0.13158,3.61598 0.0322,3.61598 -0.0993,0 -0.26532,-1.38907 -0.36884,-3.08681 z M 65.435762,148.45633 c 0,-1.16363 3.34257,-6.61874 5.55069,-9.05879 1.43585,-1.58668 2.29524,-2.20683 3.70876,-2.67633 1.51029,-0.50164 1.71465,-0.65999 1.14089,-0.88405 -1.73898,-0.67912 -9.11254,-2.18091 -11.98784,-2.44159 -1.74625,-0.15832 -5.00063,-0.54326 -7.23194,-0.85543 -2.23132,-0.31216 -5.08882,-0.70332 -6.35,-0.86925 -2.21224,-0.29104 -2.23711,-0.30516 -0.70556,-0.40064 l 1.5875,-0.099 -1.5875,-0.2565 c -3.22864,-0.5217 2.8765,-0.0236 8.81944,0.71948 7.9176,0.99003 11.44606,1.55641 16.26874,2.61141 l 4.0979,0.89646 4.36876,-1.19555 c 4.42521,-1.21098 12.39789,-3.12111 14.91747,-3.57399 0.80354,-0.14443 1.90809,-0.72769 2.653658,-1.40127 1.26301,-1.14105 7.32074,-3.91841 7.70606,-3.53308 0.1097,0.1097 -0.0254,0.20188 -0.30032,0.20485 -0.40625,0.004 -0.41217,0.0609 -0.0316,0.30218 0.41981,0.26615 -0.52088,0.73215 -5.7027,2.82499 -0.18575,0.075 -0.20849,-0.0654 -0.0517,-0.31909 0.18903,-0.30584 0.14004,-0.36655 -0.15075,-0.18683 -0.23691,0.14642 -0.3422,0.35478 -0.23396,0.46302 0.10824,0.10824 0.0529,0.37015 -0.12308,0.58203 -0.22816,0.27476 0.51981,0.35005 2.60815,0.26252 3.36047,-0.14085 6.18452,0.75729 6.18452,1.96687 0,0.94569 -13.202848,13.93675 -15.169438,14.9261 -1.37776,0.69312 -2.40319,0.83686 -7.76111,1.08795 -3.39549,0.15911 -9.34861,0.61042 -13.22917,1.0029 -9.09981,0.92036 -8.99583,0.92151 -8.99583,-0.0994 z m 2.01735,-0.68184 c -0.33541,-0.93542 0.46412,-1.63412 2.12871,-1.86026 2.84305,-0.38623 2.86357,-0.40094 2.79511,-2.00213 -0.0413,-0.96708 0.10154,-1.50615 0.4289,-1.61809 0.36222,-0.12385 0.44501,0.0722 0.31585,0.74783 -0.0963,0.50362 -0.0139,0.96939 0.18308,1.03505 0.44114,0.14704 2.18517,-1.42504 2.18517,-1.96973 0,-0.21773 1.03187,-0.8423 2.29305,-1.38794 l 2.29306,-0.99208 -2.11667,0.17268 c -1.16417,0.095 -2.5626,0.17922 -3.10763,0.18722 -0.54502,0.008 -0.89962,0.16232 -0.78799,0.34294 0.11163,0.18062 0.0416,0.42811 -0.15557,0.54998 -0.19719,0.12187 -0.35853,0.0535 -0.35853,-0.15201 0,-0.20548 -0.2249,-0.3736 -0.49977,-0.3736 -0.27487,0 -0.58327,-0.19844 -0.68533,-0.44097 -0.26804,-0.63701 -2.05496,1.484 -4.12793,4.89969 -0.95839,1.57917 -1.74253,2.96823 -1.74253,3.0868 0,0.11858 0.25136,0.21559 0.55857,0.21559 0.30721,0 0.48741,-0.19843 0.40045,-0.44097 z m 2.65696,0.20734 c -0.24254,-0.0979 -0.63941,-0.0979 -0.88195,0 -0.24253,0.0979 -0.0441,0.17793 0.44097,0.17793 0.48507,0 0.68351,-0.0801 0.44098,-0.17793 z m 3.88055,-0.35278 c -0.24253,-0.0979 -0.63941,-0.0979 -0.88194,0 -0.24254,0.0979 -0.0441,0.17794 0.44097,0.17794 0.48507,0 0.68351,-0.0801 0.44097,-0.17794 z m -4.7861,-0.89084 c -0.11261,-0.28143 -0.1962,-0.19783 -0.21313,0.21313 -0.0153,0.37189 0.0681,0.58025 0.18529,0.46302 0.11722,-0.11722 0.12975,-0.42149 0.0278,-0.67615 z m 8.66666,0.53806 c -0.24254,-0.0979 -0.63941,-0.0979 -0.88195,0 -0.24253,0.0979 -0.0441,0.17794 0.44097,0.17794 0.48507,0 0.68351,-0.0801 0.44098,-0.17794 z m -5.28682,-0.36747 c -0.4339,-0.0837 -1.22765,-0.0859 -1.76389,-0.005 -0.53624,0.0811 -0.18124,0.1496 0.7889,0.15225 0.97014,0.002 1.40889,-0.0637 0.97499,-0.14743 z m 9.16737,0.0147 c -0.24253,-0.0979 -0.63941,-0.0979 -0.88194,0 -0.24254,0.0979 -0.0441,0.17794 0.44097,0.17794 0.48507,0 0.68351,-0.0801 0.44097,-0.17794 z m -5.20347,-0.48887 c -0.70717,-0.20437 -0.0634,-0.24797 1.94028,-0.13141 2.20576,0.12833 2.85869,0.0734 2.46944,-0.2076 -0.38938,-0.28113 0.12314,-0.3249 1.94028,-0.16569 1.88819,0.16544 2.34489,0.12164 1.94028,-0.18609 -0.40564,-0.3085 0.0885,-0.36259 2.11666,-0.23171 1.90882,0.12318 2.3019,0.0861 1.41111,-0.1333 -0.96298,-0.23712 -0.69125,-0.2777 1.23473,-0.18441 1.35819,0.0658 2.78694,7.1e-4 3.175,-0.14443 1.43793,-0.53812 -2.1155,-0.75961 -5.843,-0.36419 -2.0251,0.21482 -6.14263,0.61598 -9.15006,0.89147 -3.00743,0.27548 -5.6268,0.52937 -5.82083,0.56419 -0.49968,0.0897 2.54599,0.48245 4.23333,0.54593 1.34617,0.0507 1.3624,0.039 0.35278,-0.25276 z m 2.93246,-0.57681 c 0.25466,-0.10191 0.55894,-0.0894 0.67616,0.0278 0.11723,0.11723 -0.0911,0.20061 -0.46302,0.18529 -0.41097,-0.0169 -0.49456,-0.10052 -0.21314,-0.21314 z m 11.64167,-1.05834 c 0.25466,-0.1019 0.55893,-0.0894 0.67616,0.0278 0.11722,0.11722 -0.0911,0.2006 -0.46302,0.18528 -0.41097,-0.0169 -0.49456,-0.10052 -0.21314,-0.21313 z m -5.13733,1.77124 c -0.24253,-0.0979 -0.63941,-0.0979 -0.88194,0 -0.24253,0.0979 -0.0441,0.17794 0.44097,0.17794 0.48507,0 0.68351,-0.0801 0.44097,-0.17794 z m 7.84931,-0.51613 c 0.40724,-0.1689 -0.26396,-0.20023 -1.5875,-0.0741 -1.26118,0.12018 -2.61056,0.34551 -2.99861,0.50072 -0.38961,0.15583 0.32128,0.18901 1.5875,0.0741 1.26118,-0.11446 2.61055,-0.33978 2.99861,-0.50072 z m -18.78542,-0.91031 c -0.43656,-0.0841 -1.15093,-0.0841 -1.5875,0 -0.43656,0.0841 -0.0794,0.15289 0.79375,0.15289 0.87313,0 1.23032,-0.0688 0.79375,-0.15289 z m 3.88056,-0.35278 c -0.43656,-0.0841 -1.15094,-0.0841 -1.5875,0 -0.43656,0.0841 -0.0794,0.15289 0.79375,0.15289 0.87312,0 1.23031,-0.0688 0.79375,-0.15289 z m 7.32014,-0.65213 c 3.60435,-0.28789 3.79591,-0.37396 2.71861,-1.22137 -0.5514,-0.43373 -1.12992,-0.6104 -1.51495,-0.46265 -0.57933,0.22231 -0.57535,0.25675 0.0569,0.49226 0.62937,0.23445 0.634,0.2719 0.0624,0.50522 -0.33954,0.1386 -0.89413,0.14579 -1.23241,0.016 -0.55086,-0.21138 -0.52744,-0.30212 0.22437,-0.86921 0.95547,-0.72071 0.70399,-1.011 -1.25948,-1.45383 -1.08016,-0.24362 -1.24981,-0.18008 -1.53716,0.5757 -0.196,0.51551 -0.60681,0.84954 -1.04484,0.84954 -0.42358,0 -0.88447,0.35691 -1.1154,0.86374 -0.21645,0.47506 -0.72898,0.94116 -1.13896,1.03577 -0.72284,0.16682 0.23036,0.11222 5.78097,-0.33114 z m -3.14715,-0.77461 c 0.0194,-0.43043 0.0858,-0.47176 0.21909,-0.13647 0.16146,0.406 0.23869,0.406 0.49592,0 0.23843,-0.37634 0.30584,-0.34667 0.31007,0.13647 0.003,0.33955 -0.23272,0.61736 -0.52377,0.61736 -0.29104,0 -0.51663,-0.27781 -0.50131,-0.61736 z m -3.29105,0.41804 c 0.63059,-0.25863 1.14653,-0.64645 1.14653,-0.86183 0,-0.21538 -0.18573,-0.27682 -0.41273,-0.13652 -0.25935,0.16029 -0.35059,0.0697 -0.24551,-0.24377 0.092,-0.27436 -0.19056,-0.84225 -0.62782,-1.26197 -0.63504,-0.60955 -0.8712,-0.67135 -1.17351,-0.3071 -0.20816,0.25082 -0.85116,0.55057 -1.4289,0.66612 -0.57773,0.11555 -1.05042,0.40455 -1.05042,0.64224 0,0.33612 0.0941,0.33807 0.42334,0.009 0.5283,-0.52831 3.10444,-0.56113 3.10444,-0.0395 0,0.25009 -0.47515,0.30351 -1.36394,0.15335 -1.22032,-0.20617 -1.38748,-0.14443 -1.58749,0.58635 -0.16085,0.58768 -0.30506,0.69076 -0.51412,0.36748 -0.2225,-0.34407 -0.4418,-0.28219 -0.93624,0.26417 -0.64143,0.70876 -0.63194,0.7132 1.43708,0.67296 1.14552,-0.0223 2.5987,-0.25211 3.22929,-0.51075 z m 13.13079,-0.61112 c 0.83315,0.21788 1.87235,-0.35034 1.97981,-1.08253 0.0736,-0.50156 -0.0222,-0.50707 -0.90232,-0.0519 -0.54158,0.28006 -1.34338,0.44012 -1.78179,0.35569 -0.4384,-0.0844 -1.03847,-0.0184 -1.33349,0.14668 -0.44494,0.249 -0.4063,0.34147 0.22662,0.54236 0.41966,0.13319 0.78144,0.42991 0.80394,0.65937 0.0225,0.22946 0.11024,0.15643 0.19496,-0.16228 0.0971,-0.36519 0.39745,-0.51583 0.81227,-0.40735 z m 3.41817,0.261 c 0.11596,-0.30219 0.39469,-0.47889 0.61939,-0.39266 0.22471,0.0862 1.11704,-0.45775 1.98295,-1.20884 1.211208,-1.05059 1.463158,-1.43862 1.092178,-1.68212 -0.388578,-0.25505 -0.238888,-0.78705 0.77083,-2.73964 0.68917,-1.33272 1.47991,-2.9862 1.75719,-3.67439 0.44387,-1.10165 0.72401,-1.30202 2.34289,-1.6757 2.29337,-0.52937 4.32041,-0.5703 3.54881,-0.0716 -0.47037,0.30397 -0.47037,0.3442 0,0.36205 0.33379,0.0127 0.071,0.43799 -0.71167,1.15194 -0.68245,0.62251 -2.26391,2.24309 -3.51434,3.60128 -1.31983,1.43357 -0.62009,0.84989 1.66812,-1.39145 2.80413,-2.7467 3.84184,-3.98114 3.59583,-4.27756 -1.28317,-1.54612 -6.38189,-1.34446 -14.972658,0.5922 -5.73845,1.29364 -14.82499,3.72788 -16.22778,4.34734 -0.58209,0.25704 -1.29646,0.55348 -1.5875,0.65876 -0.77495,0.2803 0.51265,0.24819 2.73403,-0.0682 1.11158,-0.15832 1.85208,-0.13075 1.85208,0.0689 0,0.18301 0.23481,0.13786 0.5218,-0.10032 0.378,-0.31371 0.8015,-0.33555 1.53678,-0.0792 0.5986,0.20868 1.2167,0.2261 1.50668,0.0425 0.27042,-0.17125 0.65043,-0.30895 0.84446,-0.30602 0.19403,0.003 0.0773,0.16583 -0.25942,0.36201 -0.8474,0.49373 -0.70879,2.16623 0.15677,1.89151 0.34403,-0.10919 0.77874,-0.10382 0.96603,0.0119 0.48048,0.29695 0.0469,1.2462 -0.56917,1.2462 -0.28173,0 -0.41412,-0.15875 -0.29421,-0.35278 0.11992,-0.19403 0.0593,-0.35278 -0.13475,-0.35278 -0.87848,0 -0.63862,0.67439 0.3642,1.02397 0.61081,0.21293 1.13916,0.38714 1.17412,0.38714 0.035,0 0.051,-0.35223 0.0356,-0.78274 -0.0171,-0.47741 0.21281,-0.83153 0.58935,-0.90781 0.42967,-0.087 0.61736,0.0973 0.61736,0.60635 0,1.23407 1.30829,2.24488 2.59256,2.00306 2.00047,-0.37667 2.17114,-0.46316 2.06628,-1.04712 -0.0695,-0.387 0.16309,-0.59313 0.70556,-0.62533 0.7812,-0.0464 0.78288,-0.0532 0.0486,-0.19658 -0.68486,-0.13375 -1.27152,-1.21131 -1.34177,-2.46451 -0.0128,-0.22884 -0.16581,-0.54634 -0.33996,-0.70556 -0.18304,-0.16733 -0.20731,-0.0662 -0.0575,0.23969 0.15698,0.32058 0.06,0.2863 -0.24602,-0.087 -0.27782,-0.33887 -0.98537,-0.71218 -1.57232,-0.82958 -0.93783,-0.18756 -1.11159,-0.0915 -1.43346,0.79253 -0.20144,0.55329 -0.3788,0.75017 -0.39411,0.43753 -0.0205,-0.41844 -0.28386,-0.52752 -0.99799,-0.41335 -0.7583,0.12122 -0.85459,0.0732 -0.44098,-0.21991 0.43268,-0.30661 0.37014,-0.37598 -0.34297,-0.3804 -0.87058,-0.005 -0.87088,-0.007 -0.1704,-0.70715 0.40617,-0.40617 1.96227,-1.00509 3.69437,-1.42191 1.64594,-0.39609 3.54824,-0.86736 4.22734,-1.04727 0.67909,-0.1799 2.54358,-0.42401 4.1433,-0.54245 2.599008,-0.19242 2.885028,-0.15393 2.687188,0.36162 -0.14008,0.36506 -0.34469,0.45367 -0.55709,0.24128 -0.44952,-0.44952 -1.687288,-0.10004 -1.687288,0.4764 0,0.25225 -0.19844,0.5387 -0.44097,0.63656 -0.25885,0.10445 -0.18087,0.18944 0.18879,0.20579 0.53048,0.0235 0.5668,0.14553 0.23033,0.77422 -0.3126,0.5841 -0.30141,0.7137 0.0515,0.59607 0.24801,-0.0827 0.62454,-0.66596 0.83674,-1.2962 0.363418,-1.07936 0.897518,-1.18392 0.897518,-0.17571 0,0.633 -2.178108,2.95169 -2.772728,2.95169 -0.31193,0 -0.4184,0.25301 -0.29885,0.71018 0.24261,0.92773 -0.9643,1.65675 -1.71347,1.035 -0.71441,-0.59291 -0.62893,-1.03962 0.19894,-1.03962 h 0.70555 l -0.70555,-0.70556 c -0.38806,-0.38805 -0.86431,-0.70555 -1.05834,-0.70555 -0.58289,0 -0.39763,-0.99444 0.26459,-1.42022 0.55297,-0.35555 0.54377,-0.37171 -0.0882,-0.15495 -0.38805,0.1331 -1.37707,0.32413 -2.19782,0.4245 -0.82074,0.10038 -1.40269,0.32742 -1.29322,0.50455 0.10946,0.17712 0.54286,0.23767 0.96309,0.13456 0.42023,-0.10312 0.56464,-0.096 0.32089,0.0158 -0.76366,0.35026 -0.0965,0.84855 1.13609,0.84855 1.15238,0 1.17874,0.0333 1.10855,1.39888 -0.0395,0.76938 -0.18324,1.51021 -0.31932,1.64629 -0.45782,0.45783 -0.26139,1.26901 0.25895,1.06934 0.27851,-0.10687 0.56572,-0.0163 0.63825,0.20133 0.0725,0.21761 0.64074,-0.35834 1.26268,-1.27987 0.62194,-0.92154 1.02365,-1.86256 0.89269,-2.09116 -0.13096,-0.2286 -0.10821,-0.29795 0.0506,-0.15412 0.15878,0.14384 0.52971,0.0645 0.82431,-0.17639 0.84097,-0.68756 -1.34181,2.95513 -2.55618,4.26582 -0.59924,0.64677 -1.56578,1.38788 -2.14786,1.64692 l -1.05834,0.47096 1.51038,0.0288 c 1.06118,0.0202 1.57309,-0.13463 1.72122,-0.52066 z m 4.000348,-7.52281 c 0,-0.19403 0.15875,-0.45089 0.35278,-0.57081 0.19402,-0.11991 0.35277,-0.0593 0.35277,0.13475 0,0.19403 -0.15875,0.45089 -0.35277,0.57081 -0.19403,0.11992 -0.35278,0.0593 -0.35278,-0.13475 z m -6.536088,5.72723 c 0.58523,-0.40133 0.60256,-0.4772 0.10901,-0.4772 -0.32276,0 -0.68655,0.16134 -0.80842,0.35853 -0.12187,0.19719 -0.3584,0.27398 -0.52561,0.17063 -0.16722,-0.10334 -0.38739,-0.053 -0.48927,0.11184 -0.29584,0.47866 0.95121,0.35951 1.71429,-0.1638 z m -10.75002,-0.86393 c 0,-0.13012 -0.39688,-0.31244 -0.88195,-0.40517 -0.83759,-0.16012 -1.13097,0.0725 -0.67126,0.5322 0.27922,0.27923 1.55321,0.17503 1.55321,-0.12703 z m 11.19334,-0.17919 c -0.11722,-0.11722 -0.4215,-0.12975 -0.67615,-0.0278 -0.28143,0.11261 -0.19784,0.19621 0.21313,0.21313 0.37189,0.0153 0.58025,-0.0681 0.46302,-0.18528 z m -18.17719,-1.14619 c -0.2516,-0.1596 -1.12472,-0.31373 -1.94028,-0.3425 -1.07374,-0.0379 -1.33683,0.0422 -0.95365,0.29019 0.29104,0.18838 1.16417,0.3425 1.94028,0.3425 0.8734,0 1.23679,-0.11057 0.95365,-0.29019 z m 7.6894,0.14543 c 0,-0.37235 -0.67702,-0.52878 -0.87838,-0.20297 -0.12188,0.1972 0.0259,0.35854 0.3284,0.35854 0.30249,0 0.54998,-0.07 0.54998,-0.15557 z m -1.67569,-0.43085 c -0.24254,-0.0979 -0.63941,-0.0979 -0.88195,0 -0.24253,0.0979 -0.0441,0.17794 0.44098,0.17794 0.48507,0 0.6835,-0.0801 0.44097,-0.17794 z m -3.35571,-0.36315 c -0.34192,-0.0892 -0.51554,-0.33391 -0.38581,-0.54382 0.15704,-0.25409 -0.0479,-0.30573 -0.61304,-0.1545 -0.4669,0.12493 -1.08704,0.23174 -1.37808,0.23736 -0.47037,0.009 -0.47037,0.0482 0,0.35219 0.29104,0.18809 1.08479,0.32599 1.76389,0.30646 0.6791,-0.0196 0.95497,-0.1085 0.61304,-0.19769 z m 18.34142,-0.3219 c -0.11723,-0.11723 -0.4215,-0.12976 -0.67616,-0.0278 -0.28142,0.11262 -0.19783,0.19621 0.21314,0.21314 0.37188,0.0153 0.58024,-0.0681 0.46302,-0.18529 z m 10.457548,-6.084 c -0.0465,-0.0679 -0.29352,0.007 -0.54896,0.16707 -0.50301,0.31471 -0.68065,0.35074 -2.12928,0.43189 -0.83409,0.0467 -1.13336,0.41779 -2.29306,2.84327 l -1.33377,2.78954 3.1948,-3.05412 c 1.75713,-1.67977 3.15676,-3.10971 3.11027,-3.17765 z m -26.589788,5.02237 c 0,-0.075 -0.47625,-0.13635 -1.05833,-0.13635 -0.58209,0 -1.05834,0.13126 -1.05834,0.29168 0,0.16042 0.47625,0.22178 1.05834,0.13635 0.58208,-0.0854 1.05833,-0.21669 1.05833,-0.29168 z m 1.95244,-0.22125 c -0.32684,-0.1829 -0.68817,-0.23862 -0.80297,-0.12382 -0.1148,0.1148 -0.0142,0.20872 0.22367,0.20872 0.23781,0 0.3354,0.15694 0.21686,0.34874 -0.12665,0.20492 0.0262,0.25598 0.37057,0.12383 0.54419,-0.20882 0.5436,-0.2487 -0.008,-0.55747 z m 14.90276,-2.32654 c 0.0753,-0.22593 -0.17529,-0.41078 -0.5569,-0.41078 -0.46244,0 -0.75082,0.29815 -0.86473,0.89402 -0.1594,0.83388 -0.12193,0.86152 0.5569,0.41079 0.4003,-0.26579 0.78942,-0.6681 0.86473,-0.89403 z m -20.47852,0.43442 c -0.11723,-0.11723 -0.4215,-0.12976 -0.67616,-0.0278 -0.28142,0.11262 -0.19783,0.19621 0.21314,0.21314 0.37188,0.0153 0.58025,-0.0681 0.46302,-0.18529 z m -1.58015,-0.37328 c -0.24254,-0.0979 -0.63941,-0.0979 -0.88195,0 -0.24253,0.0979 -0.0441,0.17794 0.44098,0.17794 0.48507,0 0.6835,-0.0801 0.44097,-0.17794 z m -1.59485,-0.33228 c -0.11723,-0.11722 -0.4215,-0.12976 -0.67616,-0.0278 -0.28142,0.11261 -0.19783,0.1962 0.21314,0.21313 0.37188,0.0153 0.58025,-0.0681 0.46302,-0.18529 z m -1.76389,-0.35278 c -0.11723,-0.11722 -0.4215,-0.12975 -0.67616,-0.0278 -0.28142,0.11261 -0.19783,0.19621 0.21314,0.21313 0.37189,0.0153 0.58025,-0.0681 0.46302,-0.18528 z m -1.41111,-0.35278 c -0.11723,-0.11722 -0.4215,-0.12975 -0.67616,-0.0278 -0.28142,0.11261 -0.19783,0.19621 0.21314,0.21313 0.37188,0.0153 0.58025,-0.0681 0.46302,-0.18528 z m -1.58015,-0.37327 c -0.24254,-0.0979 -0.63941,-0.0979 -0.88194,0 -0.24254,0.0979 -0.0441,0.17793 0.44097,0.17793 0.48507,0 0.6835,-0.0801 0.44097,-0.17793 z m 28.74404,0.0205 c -0.11723,-0.11722 -0.4215,-0.12975 -0.67616,-0.0278 -0.28142,0.11261 -0.19783,0.19621 0.21314,0.21313 0.37188,0.0153 0.58024,-0.0681 0.46302,-0.18528 z m -30.50793,-0.37327 c -0.24253,-0.0979 -0.63941,-0.0979 -0.88194,0 -0.24254,0.0979 -0.0441,0.17794 0.44097,0.17794 0.48507,0 0.68351,-0.0801 0.44097,-0.17794 z m -3.96875,-0.46869 c -1.45521,-0.13369 -3.59833,-0.33789 -4.7625,-0.45377 l -2.11667,-0.21071 2.46945,0.46521 c 1.35819,0.25586 3.50132,0.46006 4.7625,0.45377 l 2.29305,-0.0114 z m -7.49241,-0.95117 c -0.33729,-0.0883 -0.97229,-0.0915 -1.41111,-0.007 -0.43883,0.0844 -0.16287,0.15663 0.61324,0.16055 0.77611,0.004 1.13515,-0.0651 0.79787,-0.15343 z m -3.00273,-0.35936 c -0.43656,-0.0841 -1.15094,-0.0841 -1.5875,0 -0.43656,0.0841 -0.0794,0.15289 0.79375,0.15289 0.87313,0 1.23031,-0.0688 0.79375,-0.15289 z m 51.064578,-3.80798 c 0.48507,-0.27729 0.7232,-0.50416 0.52917,-0.50416 -0.19403,0 -0.74965,0.22687 -1.23472,0.50416 -0.48507,0.27729 -0.7232,0.50417 -0.52917,0.50417 0.19403,0 0.74965,-0.22688 1.23472,-0.50417 z m 2.11667,-0.88194 c 0.29104,-0.18809 0.37042,-0.34197 0.17639,-0.34197 -0.19403,0 -0.5909,0.15388 -0.88195,0.34197 -0.29104,0.18809 -0.37041,0.34197 -0.17638,0.34197 0.19402,0 0.5909,-0.15388 0.88194,-0.34197 z m 102.3334,11.0831 c 0.0169,-0.41097 0.10052,-0.49456 0.21314,-0.21314 0.10191,0.25466 0.0894,0.55893 -0.0278,0.67616 -0.11722,0.11723 -0.2006,-0.0911 -0.18528,-0.46302 z M 20.544792,134.9026 c 1.01864,-0.0713 2.68552,-0.0713 3.70417,0 1.01864,0.0713 0.1852,0.12957 -1.85209,0.12957 -2.03729,0 -2.87073,-0.0583 -1.85208,-0.12957 z m 13.67014,-1.2109 c -1.99573,-0.43598 -3.76991,-1.33043 -3.60714,-1.81854 0.0965,-0.28934 1.24877,-0.39039 3.81298,-0.3344 6.30714,0.13773 9.49555,0.47071 9.49555,0.99167 0,0.56814 -0.59911,0.75284 -3.35139,1.03324 -4.08581,0.41626 -4.95076,0.43371 -6.35,0.12803 z m 0.47404,-1.17117 c -0.095,-0.095 -0.71676,-0.27474 -1.38171,-0.39943 -0.83757,-0.15706 -1.10062,-0.11318 -0.85622,0.14284 0.19403,0.20326 0.74965,0.42901 1.23472,0.50167 0.92285,0.13824 1.2955,0.0472 1.00321,-0.24508 z m 4.37665,0.29185 c -0.24253,-0.0979 -0.63941,-0.0979 -0.88194,0 -0.24254,0.0979 -0.0441,0.17794 0.44097,0.17794 0.48507,0 0.68351,-0.0801 0.44097,-0.17794 z m 3.35139,-0.37182 c -0.53358,-0.0808 -1.4067,-0.0808 -1.94028,0 -0.53357,0.0808 -0.097,0.14697 0.97014,0.14697 1.06715,0 1.50372,-0.0661 0.97014,-0.14697 z m -31.75,-1.03929 c 0.24254,-0.0979 0.63941,-0.0979 0.88195,0 0.24253,0.0979 0.0441,0.17794 -0.44098,0.17794 -0.48507,0 -0.6835,-0.0801 -0.44097,-0.17794 z m -1.7418404,-0.36013 c 0.25466,-0.1019 0.55893,-0.0894 0.67616,0.0278 0.11722,0.11722 -0.0911,0.2006 -0.46302,0.18528 -0.41097,-0.0169 -0.49456,-0.10052 -0.21314,-0.21313 z m 3.5057304,0.007 c 0.24254,-0.0979 0.63941,-0.0979 0.88194,0 0.24254,0.0979 0.0441,0.17794 -0.44097,0.17794 -0.48507,0 -0.6835,-0.0801 -0.44097,-0.17794 z m 31.92639,-0.0191 c 0.53357,-0.0808 1.4067,-0.0808 1.94028,0 0.53357,0.0808 0.097,0.14697 -0.97014,0.14697 -1.06716,0 -1.50372,-0.0661 -0.97014,-0.14697 z m 155.962758,-0.51167 c -0.6498,-0.71802 -1.55373,-0.83899 -2.1103,-0.28242 -0.41701,0.41701 -1.63257,0.0698 -1.35095,-0.3859 0.10211,-0.16522 0.40264,-0.21714 0.66785,-0.11537 0.2652,0.10176 0.58698,0.0154 0.71508,-0.1918 0.39882,-0.64531 1.24574,-0.41665 2.19751,0.59331 0.76403,0.81075 0.84648,0.84034 0.50186,0.18004 -0.46698,-0.89473 -2.35269,-1.99344 -2.87126,-1.67294 -0.18833,0.11639 -0.34242,0.0394 -0.34242,-0.17103 0,-0.23987 -0.38837,-0.18182 -1.04081,0.15557 -1.43413,0.74161 -1.78214,0.66108 -0.72308,-0.16733 1.0102,-0.79019 2.62666,-0.88696 3.81362,-0.2283 0.73374,0.40717 2.17543,2.20964 2.18128,2.72714 0.005,0.45882 -1.09112,0.16375 -1.63838,-0.44097 z m -189.653038,0.17795 c 0.24254,-0.0979 0.63941,-0.0979 0.88195,0 0.24253,0.0979 0.0441,0.17794 -0.44098,0.17794 -0.48507,0 -0.6835,-0.0801 -0.44097,-0.17794 z m 2.38125,-0.10048 c -0.95684,-0.2266 -0.87227,-0.27586 0.88195,-0.51368 1.06715,-0.14467 2.73402,-0.20047 3.70416,-0.12399 1.47229,0.11607 1.29732,0.1611 -1.05833,0.27239 l -2.82222,0.13332 3.88055,0.2133 3.88056,0.21331 -3.70417,0.028 c -2.03729,0.0154 -4.18042,-0.0848 -4.7625,-0.22264 z m 24.61689,0.0744 c 0.92749,-0.0729 2.35624,-0.072 3.175,0.002 0.81877,0.074 0.0599,0.13364 -1.68633,0.13256 -1.74625,-0.001 -2.41615,-0.0616 -1.48867,-0.13452 z m -13.47499,-0.22203 c 0.0808,-0.0709 4.19511,-0.20708 9.14282,-0.30252 5.35426,-0.10329 7.35356,-0.0699 4.93889,0.0826 -4.37265,0.27604 -14.32274,0.43145 -14.08171,0.21994 z m 19.99074,-0.1262 c 0.63059,-0.0783 1.66246,-0.0783 2.29305,0 0.6306,0.0782 0.11466,0.14228 -1.14652,0.14228 -1.26118,0 -1.77712,-0.064 -1.14653,-0.14228 z m -23.26128,-0.33857 c 0.25466,-0.10191 0.55893,-0.0894 0.67615,0.0278 0.11723,0.11723 -0.0911,0.20061 -0.46302,0.18529 -0.41096,-0.0169 -0.49456,-0.10052 -0.21313,-0.21313 z m 6.15156,-0.37339 c 1.30969,-0.0679 3.45281,-0.0679 4.7625,0 1.30968,0.0679 0.23812,0.12341 -2.38125,0.12341 -2.61938,0 -3.69094,-0.0555 -2.38125,-0.12341 z M 164.0629,117.33983 c -0.37389,-0.28286 -0.59482,-0.59928 -0.49095,-0.70315 0.10387,-0.10387 0.56853,0.12733 1.03258,0.51378 0.96473,0.80341 0.48958,0.96953 -0.54163,0.18937 z m 3.52644,-0.48208 c -0.10648,-0.17229 0.30553,-0.38652 0.91559,-0.47606 1.00213,-0.14708 1.04635,-0.11684 0.45814,0.31327 -0.75967,0.55548 -1.10569,0.59648 -1.37373,0.16279 z m -1.78831,-0.74506 c 0.38806,-0.16676 1.18181,-0.30319 1.76389,-0.30319 0.90227,0 0.95429,0.0447 0.35278,0.30319 -0.38805,0.16675 -1.1818,0.30318 -1.76389,0.30318 -0.90227,0 -0.95429,-0.0447 -0.35278,-0.30318 z m -28.00596,-0.35278 c -0.0523,-0.65923 2.44219,-7.16053 2.66279,-6.93993 0.0885,0.0885 -0.0902,0.76179 -0.39703,1.4962 -0.42384,1.01438 -0.45876,1.42629 -0.14531,1.71383 0.29723,0.27264 0.34821,0.2636 0.18229,-0.0323 -0.12668,-0.22596 -0.0851,-0.46408 0.0923,-0.52916 0.17747,-0.0651 0.37689,-0.43583 0.44317,-0.82389 0.0663,-0.38805 0.25597,-0.80442 0.42152,-0.92527 0.16555,-0.12084 0.0999,-0.59709 -0.14595,-1.05832 -0.42065,-0.78925 -0.409,-0.80746 0.19772,-0.30945 0.6057,0.49717 0.61813,0.47935 0.20556,-0.2948 -0.24151,-0.45318 -0.34688,-0.9162 -0.23414,-1.02893 0.11273,-0.11274 0.20497,-0.0198 0.20497,0.2066 0,0.22637 0.15377,0.41157 0.34171,0.41157 0.18793,0 0.24033,-0.26416 0.11643,-0.58703 -0.15044,-0.39205 -0.0895,-0.50315 0.18342,-0.33446 0.26702,0.16503 0.33586,0.0628 0.1986,-0.29491 -0.11555,-0.30113 -0.0288,-0.5475 0.19284,-0.5475 0.28967,0 0.29982,-0.19267 0.0361,-0.68539 -0.26078,-0.48727 -0.24397,-0.95502 0.0581,-1.61809 0.40403,-0.88675 0.44989,-0.90078 0.93103,-0.28474 0.48249,0.61777 0.49299,0.61508 0.22533,-0.0576 -0.48626,-1.22208 -0.29261,-2.0193 1.40868,-5.799514 2.01463,-4.47643 3.32358,-6.43539 5.21605,-7.80629 1.48767,-1.07767 5.41106,-2.47712 6.73922,-2.40385 0.56898,0.0314 0.49416,0.10851 -0.30175,0.31104 -0.98387,0.25035 -0.99628,0.27257 -0.17639,0.31585 0.48507,0.0256 1.27882,0.12702 1.76389,0.22537 0.78457,0.15907 0.80404,0.13964 0.17639,-0.176 -0.51862,-0.26081 -0.098,-0.31235 1.5875,-0.19451 1.26118,0.0882 3.64243,0.25363 5.29167,0.36769 6.0688,0.41971 11.6745,2.29466 17.28611,5.78172 5.17068,3.21306 7.3854,4.93098 7.63402,5.92156 0.25222,1.004914 -0.37362,4.980694 -0.86069,5.467764 -0.33151,0.33151 -0.83517,0.42213 -12.40813,2.23262 -5.79974,0.90732 -8.00911,1.38544 -8.23056,1.78115 -0.19834,0.35441 -0.44493,0.42809 -0.7152,0.21372 -0.25528,-0.20248 -1.3537,-0.17632 -2.88194,0.0686 -2.38002,0.38148 -2.4723,0.43345 -2.54833,1.43503 -0.18283,2.40873 -2.34177,3.01773 -10.69795,3.01773 -3.48238,0 -6.60013,0.19802 -8.33033,0.52911 -1.52078,0.291 -2.82418,0.52913 -2.89645,0.52916 -0.0723,3e-5 0.0865,-0.26854 0.35278,-0.59682 0.31764,-0.39159 0.33436,-0.50692 0.0486,-0.33532 -0.27693,0.16631 -0.7044,-0.16232 -1.17384,-0.90242 -0.44183,-0.69658 -0.65329,-0.86521 -0.5266,-0.41994 0.29498,1.03675 -0.13594,2.12995 -0.58748,1.49039 -0.22294,-0.31576 -0.26129,-0.12241 -0.11658,0.58778 0.14464,0.70987 0.10771,0.89628 -0.11213,0.56616 -0.26543,-0.39857 -0.36032,-0.36502 -0.49896,0.17639 -0.10863,0.42421 -0.18654,0.47516 -0.21317,0.1394 z m 1.25945,-2.53559 c -0.11261,-0.28142 -0.19621,-0.19783 -0.21313,0.21314 -0.0153,0.37188 0.0681,0.58024 0.18528,0.46302 0.11723,-0.11723 0.12976,-0.4215 0.0278,-0.67616 z m 5.13888,-0.16749 c -0.51343,-0.20718 -0.60055,-1.17748 -0.10573,-1.17748 0.18439,0 0.47881,0.25654 0.65428,0.57008 0.28202,0.50394 1.17419,0.55338 7.69045,0.42614 7.6878,-0.15012 8.70377,-0.34212 9.14362,-1.72798 0.33225,-1.04683 0.0375,-1.16515 -1.24735,-0.50073 -1.57971,0.8169 -9.6238,1.39003 -14.40057,1.02603 -3.03154,-0.23101 -3.48883,-0.33197 -2.35207,-0.51926 l 1.41112,-0.23249 -1.41112,-0.10652 c -1.35383,-0.10219 -1.36457,-0.11229 -0.26458,-0.2488 1.102,-0.13675 1.14653,-0.20375 1.14653,-1.72494 0,-4.57232 3.0743,-5.74951 11.95116,-4.57625 3.31973,0.43876 3.73725,0.57777 4.48031,1.49165 0.45068,0.55429 1.00536,1.44437 1.23261,1.97794 0.22944,0.53872 0.69162,0.97014 1.03929,0.97014 0.59386,0 0.58975,-0.16769 -0.0798,-3.25626 -1.07943,-4.97961 -4.48957,-14.689744 -5.59233,-15.923754 -0.32824,-0.3673 -5.22295,1.40686 -5.97574,2.166 -0.47113,0.4751 -0.45178,0.50608 0.17639,0.28245 1.92457,-0.68515 2.5739,-0.63951 3.13742,0.22052 0.67869,1.03581 1.97786,4.73402 1.97786,5.63016 0,0.60112 -0.38036,0.65093 -5.02708,0.65827 l -5.02709,0.008 -1.55733,3.554024 c -2.25486,5.14588 -4.27375,10.59199 -4.05668,10.94323 0.10318,0.16694 0.93229,0.291 1.84247,0.27568 0.91019,-0.0153 1.45644,-0.10792 1.21391,-0.20578 z m 15.55286,-3.37251 1.99751,-0.84234 -1.01966,-1.60782 c -1.2156,-1.91681 -1.43118,-1.98133 -7.63296,-2.28467 -4.93275,-0.24127 -6.39142,0.0861 -7.2116,1.61867 -0.41994,0.78465 -0.48952,3.6494 -0.0986,4.06133 0.14552,0.15336 2.89782,0.19297 6.11622,0.088 5.11437,-0.16679 6.10332,-0.29696 7.84914,-1.03318 z m -6.09752,-0.26294 c -0.28558,-0.17651 -0.11503,-0.27605 0.47297,-0.27605 1.02638,0 1.14845,0.10128 0.44664,0.37059 -0.26013,0.0998 -0.67395,0.0573 -0.91961,-0.0945 z m 2.71549,-0.26043 c 0.43656,-0.0841 1.15094,-0.0841 1.5875,0 0.43656,0.0841 0.0794,0.15289 -0.79375,0.15289 -0.87313,0 -1.23031,-0.0688 -0.79375,-0.15289 z m -4.49792,-0.45659 c -0.29104,-0.18808 -0.37041,-0.34197 -0.17639,-0.34197 0.19403,0 0.59091,0.15389 0.88195,0.34197 0.29104,0.18809 0.37041,0.34197 0.17639,0.34197 -0.19403,0 -0.59091,-0.15388 -0.88195,-0.34197 z m 2.80375,-0.35859 c 0.66893,-0.1575 1.85955,-0.15865 2.64583,-0.002 1.23661,0.24551 1.07244,0.28417 -1.21624,0.28637 -2.11485,0.002 -2.40175,-0.0549 -1.42959,-0.28383 z m 9.73487,-0.96432 c -0.50142,-2.76506 -1.32346,-6.12929 -1.46346,-5.98929 -0.0802,0.0802 0.17317,1.69639 0.5631,3.59148 0.38993,1.89509 0.70896,3.50751 0.70896,3.58317 0,0.0756 0.0971,0.13755 0.21565,0.13755 0.11861,0 0.1077,-0.59531 -0.0242,-1.32291 z m 4.04194,0.60569 c 0.73015,-0.2532 5.16464,-0.99564 13.84652,-2.31826 0.72761,-0.11084 1.31979,-0.38602 1.31596,-0.6115 -0.004,-0.22548 -0.45737,-1.68684 -1.00788,-3.24746 -1.07669,-3.052324 -2.05273,-4.775584 -4.58695,-8.098614 -0.88782,-1.16417 -1.63955,-2.16487 -1.67051,-2.22378 -0.031,-0.0589 -0.39173,-0.13239 -0.80171,-0.16327 -0.40999,-0.0309 -0.74543,-0.19811 -0.74543,-0.3716 0,-0.1735 -0.22787,-0.22801 -0.50638,-0.12114 -0.2785,0.10688 -0.56119,0.0299 -0.62819,-0.17114 -0.067,-0.20101 -0.5534,-0.39053 -1.08088,-0.42116 -0.52748,-0.0306 -0.95917,-0.15535 -0.9593,-0.27715 -3e-4,-0.26627 -4.53154,-0.94043 -7.87426,-1.17154 -1.32328,-0.0915 -2.35006,-0.0536 -2.28174,0.0842 1.05716,2.1319 0.95341,2.0641 3.83341,2.50498 1.53336,0.23473 4.17848,0.89315 5.87805,1.46315 1.69957,0.57 3.11299,1.03828 3.14095,1.04062 0.2202,0.0184 4.00611,5.25098 4.00611,5.5369 0,0.695244 -3.12826,0.859774 -4.34569,0.22856 -1.45167,-0.75265 -7.21949,-0.81132 -7.67268,-0.078 -0.20534,0.33224 -0.6603,-0.32373 -1.49962,-2.16214 -4.01171,-8.78705 -3.98504,-8.74082 -4.93617,-8.559 l -0.88717,0.16959 1.07607,2.52239 c 1.37891,3.23225 2.75013,7.2497 2.71825,7.96404 -0.0181,0.40488 -0.10703,0.3642 -0.32798,-0.14999 -0.19111,-0.44472 -0.30319,-0.50993 -0.30319,-0.17639 0,0.75985 0.59808,2.085634 0.63657,1.411114 0.0698,-1.224144 0.69736,0.61822 1.45313,4.26641 l 0.78445,3.78665 1.27216,-0.17528 c 0.69968,-0.0964 1.66903,-0.3129 2.1541,-0.48111 z m 6.70277,-6.45985 c 0,-0.79114 0.15772,-0.87964 1.766,-0.99096 0.9713,-0.0672 1.9238,-0.0693 2.11667,-0.005 0.45794,0.15356 0.45612,1.11713 -0.002,1.11713 -0.19403,0 -0.35278,-0.15875 -0.35278,-0.35278 0,-0.19403 -0.70939,-0.35278 -1.57643,-0.35278 -1.20566,0 -1.53189,0.11606 -1.38706,0.49348 0.10415,0.27142 0.0198,0.59829 -0.18746,0.72638 -0.22828,0.14109 -0.37683,-0.10955 -0.37683,-0.63582 z m -32.35018,3.06226 c -0.15044,-0.39205 -0.0895,-0.50314 0.18342,-0.33446 0.2728,0.16861 0.33391,0.0577 0.18377,-0.33352 -0.20602,-0.5369 -0.25171,-0.5382 -0.54421,-0.0155 -0.17563,0.31382 -0.22198,0.72807 -0.10301,0.92056 0.3451,0.55839 0.52638,0.40493 0.28003,-0.23705 z m 41.41061,-0.18467 c -0.11261,-0.28142 -0.1962,-0.19783 -0.21313,0.21314 -0.0153,0.37189 0.0681,0.58025 0.18529,0.46302 0.11722,-0.11723 0.12975,-0.42149 0.0278,-0.67616 z m 3.52919,0.55516 c 0.92443,-0.24791 1.5215,-1.77115 1.5215,-3.88161 0,-1.425934 -0.11854,-1.612484 -1.85209,-2.914774 -2.24539,-1.68681 -7.62054,-5.03626 -8.22431,-5.12488 -0.23967,-0.0352 -0.72083,-0.29512 -1.06924,-0.57766 -0.34842,-0.28253 0.0503,0.39746 0.88597,1.51111 0.8357,1.11364 1.64682,1.94609 1.80249,1.84988 0.48287,-0.29843 1.61149,1.96647 2.85526,5.729884 1.15858,3.50565 1.22203,3.60745 2.25053,3.61115 0.58208,0.002 1.40553,-0.0893 1.82989,-0.2031 z m -7.97143,-10.398864 c -0.43987,-0.59495 -0.73481,-1.14667 -0.65544,-1.22604 0.0794,-0.0794 0.50421,0.34246 0.94407,0.9374 0.43987,0.59495 0.73481,1.14667 0.65544,1.22605 -0.0794,0.0794 -0.50421,-0.34246 -0.94407,-0.93741 z m 3.84681,7.894674 c -0.38439,-0.59947 -0.39434,-0.5987 -0.20136,0.0156 0.11167,0.35542 0.21557,0.83167 0.23088,1.05833 0.0201,0.29745 0.0761,0.29312 0.20136,-0.0156 0.0954,-0.23522 -0.008,-0.71147 -0.23088,-1.05833 z m -39.75685,-0.33575 c -0.15044,-0.39204 -0.0895,-0.50314 0.18342,-0.33445 0.27281,0.1686 0.33391,0.0577 0.18378,-0.33352 -0.20603,-0.5369 -0.25172,-0.53821 -0.54422,-0.0155 -0.17562,0.31381 -0.22197,0.72806 -0.10301,0.92056 0.3451,0.55838 0.52638,0.40492 0.28003,-0.23706 z m 0.99603,-2.473314 c -0.41587,-0.71515 -0.51629,-0.48625 -0.17587,0.400884 0.12098,0.31528 0.29428,0.49892 0.38511,0.40809 0.0908,-0.0908 -0.003,-0.45486 -0.20924,-0.808974 z m 37.01604,-1.84435 c -1.00058,-1.9613 -1.26052,-1.84444 -0.2991,0.13446 0.42213,0.86887 0.82802,1.51925 0.90198,1.4453 0.0739,-0.074 -0.19734,-0.78485 -0.60288,-1.57976 z m -4.95633,1.1444 c 0,-0.57605 -2.93492,-4.04072 -3.79989,-4.48576 -1.3574,-0.69841 -5.53797,-1.89787 -7.8801,-2.26091 l -1.97861,-0.30669 1.51388,3.18573 1.51389,3.18572 3.11055,-0.0659 c 1.94022,-0.0411 3.57512,0.11506 4.34528,0.41513 1.32976,0.51809 3.175,0.71146 3.175,0.33272 z m -15.49136,-3.00814 c -0.41098,-1.22506 -0.91563,-2.46552 -1.12146,-2.75656 -0.33264,-0.47037 -0.35445,-0.47037 -0.19623,0 0.0979,0.29104 0.53693,1.59711 0.97564,2.90237 0.43871,1.30526 0.86328,2.30759 0.94346,2.22739 0.0802,-0.0802 -0.19044,-1.14813 -0.60141,-2.3732 z m -6.01329,-0.0677 c -0.35902,-1.04351 -0.86641,-2.30339 -1.12753,-2.79974 l -0.47476,-0.90246 -1.94028,0.7733 c -1.54386,0.61531 -2.17452,1.1234 -3.0868,2.48684 -0.63059,0.94244 -1.14653,1.85433 -1.14653,2.02643 0,0.1721 1.89645,0.31291 4.21433,0.31291 h 4.21433 z m -8.49226,-1.10133 c 0,-0.19403 -0.15389,-0.11465 -0.34197,0.17639 -0.18809,0.29104 -0.34198,0.68792 -0.34198,0.88194 0,0.19403 0.15389,0.11466 0.34198,-0.17638 0.18808,-0.29105 0.34197,-0.68792 0.34197,-0.88195 z m 7.61667,-5.55083 2.67947,-0.88676 -1.29816,-0.24354 c -0.71399,-0.13394 -1.38777,-0.15392 -1.4973,-0.0444 -0.10953,0.10953 0.18451,0.21167 0.65341,0.22699 0.55596,0.0182 0.1478,0.27354 -1.1733,0.73408 -1.30142,0.45369 -2.626,1.27621 -3.70417,2.30018 l -1.67832,1.59396 1.66945,-1.39688 c 1.07492,-0.89941 2.62368,-1.71267 4.34892,-2.28363 z m -4.93784,1.75847 1.03614,-1.14653 -1.14653,1.03614 c -1.06872,0.96583 -1.30868,1.25692 -1.03614,1.25692 0.0607,0 0.57665,-0.51594 1.14653,-1.14653 z m 9.72226,-0.14993 c -0.41587,-0.71516 -0.51629,-0.48625 -0.17587,0.40087 0.12098,0.31528 0.29428,0.49892 0.38511,0.40809 0.0908,-0.0908 -0.003,-0.45486 -0.20924,-0.80896 z m -5.68751,-2.23132 c 0.29104,-0.18809 0.37042,-0.34197 0.17639,-0.34197 -0.19403,0 -0.5909,0.15388 -0.88194,0.34197 -0.29105,0.18809 -0.37042,0.34197 -0.17639,0.34197 0.19402,0 0.5909,-0.15388 0.88194,-0.34197 z m 53.51368,24.348404 c -0.89557,-1.60094 -1.1091,-1.77063 -2.22806,-1.77063 -1.80467,0 -2.52875,-0.53345 -2.97535,-2.19199 -0.34712,-1.2891 -0.31797,-1.53225 0.23183,-1.93428 1.03121,-0.75404 2.71325,-0.5309 4.4895,0.59556 1.90365,1.20726 2.23184,1.85788 2.40586,4.76945 0.16642,2.78465 -0.55241,2.9834 -1.92378,0.53189 z m 0.74864,-2.69485 c -0.4982,-1.00856 -3.90955,-3.03331 -4.63901,-2.75339 -0.50639,0.19431 -0.70212,1.56095 -0.22357,1.56095 0.17588,0 0.22841,0.23813 0.11672,0.52917 -0.15307,0.39889 0.0611,0.52915 0.87005,0.52915 1.66077,0 2.75793,0.56067 3.46792,1.77215 l 0.64974,1.10867 0.11092,-0.90398 c 0.061,-0.49718 -0.0977,-1.32641 -0.35277,-1.84272 z m -141.663008,3.50326 c 0.33955,-0.0887 0.89517,-0.0887 1.23472,0 0.33955,0.0887 0.0617,0.16133 -0.61736,0.16133 -0.6791,0 -0.95691,-0.0726 -0.61736,-0.16133 z m 122.338508,-0.27054 c -0.45018,-0.54243 -0.22457,-1.25017 0.39852,-1.25017 0.20334,0 0.28575,0.21878 0.18314,0.48618 -0.10261,0.2674 -0.008,0.66427 0.2092,0.88194 0.27316,0.27317 0.278,0.39577 0.0156,0.39577 -0.20908,0 -0.572,-0.23117 -0.80649,-0.51372 z m -91.029478,-0.386 c -6.88799,-0.24229 -18.79424,-0.55446 -26.45834,-0.69371 -7.66409,-0.13925 -14.4895,-0.36057 -15.16757,-0.49181 -1.32926,-0.25728 -1.99381,-1.43331 -0.82149,-1.45376 0.35378,-0.006 0.95139,-0.2443 1.32802,-0.52916 0.66725,-0.50467 0.66439,-0.51794 -0.11163,-0.51794 -0.66069,0 -0.77739,-0.16533 -0.68478,-0.97014 0.0979,-0.85106 0.24153,-0.9551 1.16995,-0.84764 1.3813,0.15988 1.4769,0.28814 0.90682,1.21646 -0.45627,0.74298 -0.44779,0.75209 0.18974,0.20404 2.22682,-1.91424 11.75426,-9.230154 15.24077,-11.703044 6.23524,-4.4225 9.56639,-6.41068 10.00541,-5.97167 0.20439,0.20439 0.2729,0.53135 0.15225,0.72657 -0.12065,0.19522 -2.16263,1.66856 -4.53773,3.2741 -7.01372,4.741184 -15.24266,11.297454 -18.21475,14.512284 l -1.54917,1.67569 8.60472,-1.3e-4 c 4.7326,-8e-5 16.78035,0.25315 26.77278,0.56273 21.024488,0.65137 33.715218,0.55066 35.651958,-0.28292 1.80105,-0.77518 3.59469,-3.05245 5.76323,-7.31721 2.19074,-4.30842 2.55893,-5.309684 1.95249,-5.309684 -0.47811,0 -6.32602,-5.2066 -6.32602,-5.63228 0,-0.15087 1.78594,-0.35549 3.96875,-0.45471 2.93701,-0.1335 4.16302,-0.0594 4.71604,0.28515 0.67272,0.4191 0.78844,0.37523 1.15974,-0.43967 0.22684,-0.49787 0.36681,-0.94916 0.31104,-1.00287 -0.0558,-0.0537 -3.43515,-0.30753 -7.50973,-0.56407 -13.42867,-0.84546 -43.918368,-0.46554 -49.300698,0.61432 -1.30428,0.26168 -1.25255,-0.44889 0.0536,-0.73576 4.81713,-1.05802 31.358268,-1.5939 45.726408,-0.92324 10.25284,0.47857 12.16378,0.67489 12.16378,1.24963 0,0.42158 -4.60993,10.515684 -6.62253,14.500984 -1.37431,2.72135 -3.67353,5.63584 -4.97841,6.31062 -2.43632,1.25987 -12.09118,1.46383 -33.554608,0.70884 z m -37.75194,-3.76074 1.58278,-1.83791 -1.80024,1.39711 c -0.99013,0.7684 -2.09925,1.5862 -2.46472,1.81732 -0.6183,0.39101 -0.60318,0.42166 0.21745,0.4408 0.63877,0.0149 1.31836,-0.48619 2.46473,-1.81732 z M 139.09266,96.453466 c 0.39702,-0.91717 0.64602,-1.7903 0.55332,-1.94028 -0.0927,-0.14998 -1.54822,-0.26553 -3.23452,-0.25678 l -3.06598,0.0159 2.08558,1.92437 c 1.14707,1.0584 2.27777,1.92437 2.51267,1.92437 0.23489,0 0.75191,-0.75041 1.14893,-1.66759 z m 52.28476,16.837024 c 0,-0.19402 -0.43656,-0.3552 -0.97014,-0.35818 -0.75598,-0.004 -0.85332,-0.0809 -0.44097,-0.34737 0.70407,-0.45501 2.57427,-0.45501 2.29306,0 -0.11992,0.19403 -0.0102,0.35521 0.24376,0.35818 0.33556,0.004 0.31714,0.0989 -0.0674,0.34737 -0.68396,0.44201 -1.05834,0.44201 -1.05834,0 z M 66.236222,113.04602 c 0.34325,-0.0894 0.8195,-0.0836 1.05834,0.013 0.23884,0.0966 -0.042,0.16982 -0.62408,0.16263 -0.58208,-0.007 -0.7775,-0.0863 -0.43426,-0.1757 z m 1.09754,-2.38432 c -0.29732,-0.77481 1.18222,-2.32226 5.68672,-5.94775 6.9928,-5.628244 14.34825,-9.901644 19.34148,-11.237134 1.39627,-0.37344 1.73056,-0.36218 2.15503,0.0726 0.43626,0.44689 0.26989,0.88626 -1.26352,3.33688 -0.97127,1.55222 -2.76937,4.811404 -3.99578,7.242614 l -2.22984,4.4204 -8.76757,1.12685 c -4.82217,0.61977 -9.20216,1.22842 -9.73333,1.35253 -0.71951,0.16813 -1.02374,0.0745 -1.19319,-0.36703 z m 8.68533,-1.75146 c 3.58952,-0.48288 7.40948,-0.97944 8.48882,-1.10347 l 1.96243,-0.22551 1.46182,-3.0544 c 0.804,-1.67993 2.40504,-4.641914 3.55786,-6.582194 1.15283,-1.94028 1.94195,-3.58453 1.75362,-3.6539 -0.48893,-0.18009 -4.27815,1.24059 -7.15584,2.68292 -4.35376,2.18215 -14.81513,9.689794 -17.24802,12.378104 -0.62727,0.69312 -0.62718,0.71044 0.003,0.57551 0.35741,-0.0765 3.58671,-0.53419 7.17623,-1.01706 z m 9.6132,0.94827 c 0.7276,-0.0761 1.91823,-0.0761 2.64583,0 0.7276,0.0761 0.13229,0.13838 -1.32292,0.13838 -1.4552,0 -2.05052,-0.0623 -1.32291,-0.13838 z m 12.52361,-2.45563 c -0.79962,-0.20896 -0.77558,-1.56163 0.0646,-3.63738 0.7701,-1.9025 1.787428,-2.34682 1.787428,-0.78066 0,0.56923 0.10143,1.77498 0.2254,2.67944 0.19605,1.43037 0.15012,1.61559 -0.352778,1.42261 -0.32113,-0.12324 -0.57817,-0.0483 -0.57817,0.16865 0,0.40445 -0.10904,0.41846 -1.14653,0.14734 z m 1.23003,-2.06471 c -0.19101,-0.99919 -0.17939,-1.00078 -0.75369,0.10303 -0.35863,0.68929 -0.32493,0.79375 0.25607,0.79375 0.52638,0 0.6325,-0.19124 0.49762,-0.89678 z m 12.851678,0.30881 c -0.12935,-0.12935 -0.23607,-1.04216 -0.23715,-2.02847 -0.001,-0.9863 -0.17358,-2.41136 -0.38333,-3.16678 -0.35304,-1.271524 -0.31443,-1.428694 0.51998,-2.116674 0.95571,-0.78799 1.7686,-2.52528 1.43452,-3.06583 -0.10986,-0.17774 -1.1545,-0.32317 -2.32145,-0.32317 -1.8304,0 -2.10553,-0.0848 -2.00384,-0.61736 0.10107,-0.52935 0.69567,-0.649 4.17101,-0.83926 2.22922,-0.12205 4.12011,-0.16091 4.20196,-0.0864 0.0819,0.0746 -0.0377,1.14801 -0.26572,2.38546 -0.38495,2.08917 -0.86971,3.38394 -3.08562,8.241554 -0.77587,1.70083 -1.4275,2.21976 -2.03036,1.61689 z m 2.80431,-5.678134 c 0.63354,-1.40906 1.25873,-3.27437 1.38931,-4.14514 l 0.23742,-1.58321 h -1.22586 c -1.10726,0 -1.21004,0.0828 -1.06231,0.85553 0.22714,1.18822 -0.52302,3.27396 -1.39792,3.88676 -0.67216,0.4708 -0.69591,0.63205 -0.30086,2.043014 0.23589,0.84252 0.39888,1.68457 0.3622,1.8712 -0.19156,0.97465 0.10382,1.30918 0.45536,0.51573 0.21492,-0.48507 0.90911,-2.03482 1.54266,-3.443884 z m 6.16789,1.062634 c 0.0193,-0.72761 0.14491,-1.719804 0.27905,-2.204864 0.32703,-1.18266 1.56434,-1.34118 2.29756,-0.29436 0.7485,1.06864 0.73541,1.13203 -0.53165,2.575144 -1.45061,1.65215 -2.09026,1.6284 -2.04496,-0.0759 z m 1.90511,-1.264124 c 0,-0.91954 -0.69176,-0.86183 -0.82343,0.0687 -0.0808,0.571124 0.0301,0.783714 0.35278,0.676154 0.25886,-0.0863 0.47065,-0.42146 0.47065,-0.744844 z m -22.75416,-0.0422 c 0,-0.99323 0.8322,-2.337 1.38176,-2.23117 0.79693,0.15348 0.89586,1.27561 0.18199,2.06443 -0.72624,0.802484 -1.56375,0.891784 -1.56375,0.16674 z m 58.47703,-12.78972 c 0.43882,-0.0844 1.07382,-0.0812 1.41111,0.007 0.33728,0.0883 -0.0218,0.15734 -0.79787,0.15342 -0.77611,-0.004 -1.05207,-0.0762 -0.61324,-0.16054 z"
       id="path4528"
       inkscape:connector-curvature="0" />
  </g>
</svg>
